<?xml version="1.0" encoding="utf-8"?>
<!-- Generator: Adobe Illustrator 16.0.0, SVG Export Plug-In . SVG Version: 6.00 Build 0)  -->
<!DOCTYPE svg PUBLIC "-//W3C//DTD SVG 1.1//EN" "http://www.w3.org/Graphics/SVG/1.1/DTD/svg11.dtd">
<svg version="1.1" xmlns="http://www.w3.org/2000/svg" xmlns:xlink="http://www.w3.org/1999/xlink" viewBox="0 0 245 32">
<path fill="#CD1D1C" d="M23.393,23.48c0.171-0.043,0.452-0.074,0.839-0.098c0.365-0.02,0.624-0.074,0.774-0.162
	c0.431-0.15,0.872-0.096,1.325,0.162c0.365,0.195,0.58,0.518,0.645,0.969c0.021,0.496-0.129,0.84-0.452,1.033
	c-0.409,0.258-0.979,0.344-1.711,0.258c-0.216-0.041-0.334-0.053-0.355-0.031c-0.129,0.021-0.269,0.031-0.42,0.031
	c-0.173,0-0.323,0.033-0.452,0.098c-0.387,0.129-0.872,0.119-1.453-0.033c-0.301-0.193-0.464-0.463-0.484-0.807
	c0.021-0.236,0.107-0.495,0.258-0.774c0.237-0.301,0.528-0.462,0.872-0.485C23.038,23.6,23.242,23.545,23.393,23.48 M19.034,8.663
	c0.107-0.064,0.193-0.162,0.258-0.289c0.022-0.174,0.258-0.249,0.71-0.228c0.323,0.022,0.592,0.14,0.808,0.355
	c0.214,0.324,0.354,0.646,0.419,0.969c0.043,0.15,0.097,0.291,0.161,0.419c0.022,0.108,0.022,0.237,0,0.388
	c0.064,0.301,0.108,0.528,0.13,0.678c0.021,0.172-0.011,0.397-0.098,0.679c-0.15,0.365-0.333,0.58-0.548,0.644
	c-0.193,0.086-0.452-0.031-0.775-0.354c-0.452-0.301-0.709-0.614-0.774-0.937c-0.216-0.495-0.334-0.839-0.355-1.034
	c0-0.128-0.032-0.366-0.097-0.709C18.894,8.877,18.947,8.685,19.034,8.663 M21.068,17.314c0-0.064,0.011-0.129,0.033-0.193
	c0.021-0.237-0.001-0.452-0.065-0.646v-0.418v-0.388c-0.065-0.086-0.14-0.141-0.226-0.162c-0.237-0.15-0.518-0.259-0.84-0.323
	h-0.032c-0.366,0.194-0.657,0.301-0.872,0.323c-0.258,0.042-0.495,0.064-0.71,0.064c-0.107,0.043-0.171,0.075-0.194,0.097
	c-0.236,0.151-0.397,0.301-0.484,0.452c-0.107,0.106-0.193,0.235-0.258,0.387c-0.021,0.431-0.076,0.775-0.162,1.033
	c-0.129,0.28-0.183,0.592-0.161,0.937c0.236-0.279,0.56-0.461,0.968-0.549c0.345-0.13,0.625-0.183,0.84-0.16
	c0.236,0.064,0.484,0.064,0.742,0c0.237-0.064,0.463-0.064,0.679,0h0.064C20.691,17.595,20.917,17.443,21.068,17.314 M27.783,12.763
	c0.129-0.128,0.236-0.258,0.323-0.387v-0.452c-0.022-0.474,0.01-0.883,0.096-1.227c0.064-0.366,0.086-0.915,0.064-1.647
	c-0.064-0.602-0.334-1.173-0.807-1.711c-1.184-1.033-2.174-1.41-2.97-1.13c-0.43,0.13-1,0.119-1.711-0.032
	c-0.926-0.215-1.818-0.119-2.68,0.289c-0.409,0.174-0.709,0.249-0.904,0.227c-0.193-0.02-0.366-0.02-0.517,0
	c-0.085,0.022-0.14,0.044-0.161,0.065c-0.732,0.301-1.237,0.56-1.517,0.775c-0.021,0.043-0.043,0.107-0.065,0.194
	c-0.366,0.731-0.538,1.237-0.516,1.518c0.107,0.688,0.171,1.172,0.193,1.452c-0.043,0.667,0.065,1.205,0.323,1.614v0.065
	l0.065,0.033c0.387,0.323,0.72,0.58,1.001,0.775c0.042,0.043,0.075,0.076,0.097,0.096c0.279-0.086,0.526-0.118,0.742-0.096
	c0.301,0.064,0.624,0.064,0.969,0c0.279-0.086,0.559-0.097,0.839-0.033c0.344,0.043,0.624-0.011,0.839-0.162
	c0.237-0.086,0.624-0.118,1.162-0.096h0.033c0.214-0.129,0.365-0.237,0.451-0.323c0.065-0.085,0.141-0.172,0.227-0.258
	c0.021-0.15,0.075-0.269,0.162-0.355c0.086-0.15,0.162-0.366,0.226-0.646c0-0.194-0.032-0.463-0.096-0.807
	c-0.022-0.257-0.022-0.463,0-0.614c0.172-0.388,0.268-0.71,0.291-0.968c0-0.495,0.193-0.881,0.58-1.163
	c0.431-0.344,0.775-0.483,1.033-0.419c0.236,0.065,0.43,0.237,0.581,0.516c0.171,0.367,0.248,0.776,0.227,1.228
	c-0.065,0.344-0.141,0.656-0.227,0.937c-0.129,0.3-0.301,0.581-0.516,0.839c-0.237,0.279-0.366,0.689-0.387,1.227
	c-0.021,0.107-0.044,0.226-0.065,0.354c0.064,0.065,0.129,0.14,0.193,0.226c0.021,0,0.043,0.033,0.065,0.097
	c0.28-0.021,0.625,0,1.033,0.064c0.387,0.044,0.743,0.055,1.065,0.033c0.043,0,0.076,0.011,0.097,0.032
	C27.664,12.828,27.718,12.785,27.783,12.763 M31.141,26.581c0.108,0.538,0.118,0.968,0.033,1.292
	c-0.107,0.236-0.173,0.432-0.194,0.581c-0.087,0.237-0.173,0.399-0.258,0.485c-0.323,0.278-0.689,0.418-1.098,0.418
	c-0.366-0.021-0.678-0.203-0.937-0.549c-0.279-0.451-0.409-0.817-0.387-1.097c0.021-0.258-0.011-0.483-0.097-0.679
	c-0.064-0.174-0.064-0.354,0-0.549c0.064-0.236,0.064-0.483,0-0.742c-0.173-0.645-0.227-1.131-0.162-1.453
	c0.107-0.969,0.086-1.916-0.064-2.841c-0.021-0.257-0.021-0.494,0-0.71c0.021-0.236,0.021-0.592,0-1.064
	c-0.044-0.559-0.021-1.001,0.064-1.324c0.107-0.429,0.129-0.882,0.065-1.355c-0.065-0.258-0.109-0.581-0.129-0.969
	c-0.194-0.214-0.366-0.364-0.517-0.451c-0.258-0.258-0.452-0.431-0.581-0.517c-0.043-0.021-0.097-0.043-0.161-0.064
	c-0.667-0.193-1.335-0.225-2.002-0.097c-0.28,0.064-0.528,0.097-0.742,0.097c-0.237,0.042-0.398,0.096-0.484,0.161
	c-0.13,0.044-0.237,0.108-0.323,0.194c0.021,0.042,0.032,0.075,0.032,0.097c0,0.237,0.01,0.495,0.032,0.776
	c0.021,0.172,0,0.332-0.064,0.483c-0.022,0.021-0.033,0.065-0.033,0.13c0.173,0.214,0.367,0.396,0.582,0.548
	c0.022,0.021,0.044,0.043,0.064,0.065c0.281-0.022,0.614,0,1.002,0.063c0.408,0.022,0.774,0.022,1.097,0
	c0.344,0.022,0.677,0.141,1,0.355c0.365,0.236,0.549,0.582,0.549,1.033c0.021,0.388-0.193,0.688-0.646,0.903
	c-0.517,0.194-1.108,0.185-1.776-0.032c-0.473-0.129-0.968-0.149-1.484-0.063c-0.388,0.106-0.753,0.117-1.098,0.03h-0.032
	c-0.882,0.303-1.486,0.561-1.808,0.775l0.032,0.033c0.065,0.323,0,0.753-0.194,1.291c-0.042,0.237-0.054,0.432-0.032,0.582v0.678
	c0,0.26,0.043,0.485,0.129,0.678c0.044,0.131,0.097,0.237,0.162,0.324c0.28,0.174,0.344,0.42,0.193,0.742
	c-0.129,0.323-0.333,0.549-0.614,0.678c-0.172,0.023-0.323,0.023-0.451,0c-0.13-0.041-0.291-0.097-0.484-0.16
	c-0.453-0.129-0.786-0.527-1.001-1.195c-0.172-0.882-0.227-1.592-0.162-2.13c0.044-0.259,0.076-0.485,0.097-0.679v-0.258
	c-0.042-0.152-0.097-0.271-0.161-0.356c-0.065-0.13-0.129-0.226-0.194-0.29c-0.195,0-0.367-0.012-0.517-0.032
	c-0.194-0.106-0.354-0.205-0.484-0.292c0,0.044,0.011,0.098,0.032,0.163c0,0.28-0.043,0.623-0.129,1.032
	c-0.15,0.345-0.216,0.646-0.194,0.904c-0.022,0.193-0.043,0.387-0.064,0.582c-0.065,0.15-0.086,0.321-0.065,0.516
	c0,0.193-0.043,0.398-0.128,0.613c-0.107,0.236-0.161,0.484-0.161,0.742c0,0.151-0.044,0.366-0.13,0.646
	c-0.322,0.797-0.528,1.432-0.613,1.905c-0.107,0.322-0.291,0.625-0.55,0.903c-0.387,0.323-0.742,0.517-1.064,0.582
	c-0.281,0.021-0.582-0.044-0.904-0.194c-0.28-0.215-0.462-0.463-0.548-0.742c-0.065-0.28-0.087-0.56-0.065-0.84
	c0.085-0.279,0.171-0.525,0.258-0.742c0.149-0.172,0.333-0.43,0.548-0.774c0.366-0.43,0.549-0.786,0.549-1.065
	c0.043-0.235,0.108-0.397,0.194-0.483c0.193-0.495,0.333-0.937,0.42-1.324c0.128-0.278,0.193-0.526,0.193-0.741
	c0-0.861,0.172-1.69,0.516-2.486c0.194-0.496,0.215-0.979,0.064-1.453c0.043-0.366,0.076-0.624,0.097-0.776
	c0.107-0.321,0.151-0.644,0.129-0.967c-0.087-0.539-0.097-1.034-0.032-1.486c0.042-0.409,0.022-1.206-0.065-2.389
	c-0.064-0.689-0.237-1.227-0.516-1.615c-0.387-0.559-0.592-1.27-0.614-2.131c-0.107-0.882,0.032-1.689,0.42-2.421
	c0.365-0.861,0.71-1.366,1.033-1.517c0.496-0.259,0.936-0.248,1.324,0.031c-0.022-0.02-0.022-0.031,0-0.031
	c0.085-0.021,0.236-0.021,0.451,0c0.129,0,0.323-0.011,0.582-0.033c0.495-0.171,0.98-0.215,1.453-0.128
	c0.344,0.086,0.613,0.097,0.807,0.032c0.452-0.216,0.785-0.291,1.001-0.227c0.128,0.021,0.29-0.011,0.484-0.097
	c0.517-0.215,0.969-0.258,1.356-0.129c0.408,0.109,0.817,0.119,1.226,0.033c0.667-0.108,1.238-0.119,1.711-0.033
	c0.301,0.044,0.549,0.055,0.743,0.033c0.236,0,0.431,0.064,0.581,0.193c0.237,0.151,0.484,0.216,0.743,0.194
	c0.345-0.022,0.624,0.011,0.839,0.096c0.28,0.151,0.462,0.302,0.549,0.453c0.107,0.237,0.322,0.43,0.646,0.58
	c0.538,0.302,0.903,0.786,1.097,1.454c0.086,0.366,0.086,0.754,0,1.162c-0.064,0.28-0.172,0.485-0.322,0.614
	c-0.151,0.172-0.237,0.365-0.259,0.581c-0.022,0.237-0.064,0.398-0.129,0.485c-0.108,0.259-0.129,0.484-0.064,0.678
	c0.064,0.194,0.064,0.431,0,0.71c-0.13,0.732-0.163,1.496-0.097,2.292c0,0.539-0.075,0.98-0.226,1.324
	c-0.065,0.194-0.055,0.463,0.032,0.807c0.063,0.28,0.053,0.613-0.032,1.001c-0.087,0.322-0.087,0.656,0,1
	c0.15,0.818,0.182,1.518,0.096,2.099c-0.129,0.991-0.086,1.722,0.13,2.196c0.409,1.248,0.624,2.26,0.646,3.035
	C30.925,25.591,31.011,26.129,31.141,26.581 M10.478,22.126c0.107-0.086,0.194-0.194,0.259-0.323
	c0.043-0.173,0.301-0.248,0.774-0.227c0.345,0,0.624,0.14,0.839,0.419c0.237,0.345,0.388,0.679,0.452,1.001
	c0.021,0.172,0.065,0.322,0.129,0.452c0.021,0.129,0.021,0.269,0,0.419c0.064,0.279,0.107,0.517,0.129,0.71
	c0.022,0.194-0.01,0.431-0.097,0.71c-0.193,0.388-0.398,0.613-0.613,0.678c-0.215,0.086-0.495-0.043-0.839-0.387
	c-0.452-0.344-0.71-0.689-0.774-1.034c-0.237-0.517-0.355-0.871-0.355-1.065c0-0.149-0.033-0.398-0.097-0.742
	C10.328,22.352,10.392,22.146,10.478,22.126 M7.024,23.094c0.129-0.043,0.237-0.107,0.323-0.193c0.064-0.15,0.323-0.15,0.775,0
	c0.301,0.106,0.517,0.302,0.646,0.582c0.108,0.387,0.15,0.742,0.13,1.064c-0.022,0.561,0.032,1.076,0.161,1.551
	c0.043,0.43-0.043,0.883-0.258,1.355c-0.022,0.301-0.043,0.527-0.064,0.677c-0.044,0.194-0.141,0.399-0.291,0.613
	c-0.28,0.301-0.527,0.452-0.743,0.452c-0.215,0.021-0.431-0.172-0.646-0.581c-0.301-0.431-0.442-0.808-0.42-1.13
	c-0.171-1.161-0.226-1.938-0.16-2.324c0.064-0.301,0.139-0.818,0.226-1.551C6.83,23.266,6.937,23.094,7.024,23.094 M8.573,13.376
	c-0.021,0-0.033,0.011-0.033,0.033c-0.171,0.151-0.43,0.237-0.774,0.258C7.464,13.71,7.27,13.872,7.185,14.15
	c-0.173,0.41-0.463,0.744-0.872,1.001c-0.28,0.173-0.431,0.388-0.452,0.646c-0.042,0.366-0.172,0.646-0.387,0.839
	c-0.28,0.259-0.409,0.495-0.387,0.71c0.086,0.387,0.29,0.754,0.613,1.1c0.237,0.128,0.483,0.193,0.743,0.193
	c0.323,0.021,0.548,0.074,0.677,0.16c0.215,0.131,0.398,0.161,0.549,0.098c0.301-0.107,0.528-0.129,0.678-0.064
	c0.236,0.043,0.549-0.012,0.937-0.162c0.387-0.172,0.709-0.431,0.968-0.775v-0.063c0-0.388,0.042-0.688,0.129-0.904
	c0.107-0.28,0.15-0.624,0.129-1.033c-0.043-0.388-0.139-0.657-0.291-0.808c-0.043-0.064-0.097-0.193-0.162-0.388
	c-0.086-0.235-0.205-0.429-0.355-0.581c-0.086-0.086-0.141-0.161-0.161-0.226c-0.022-0.064-0.065-0.129-0.13-0.194
	C9.176,13.57,8.897,13.462,8.573,13.376 M2.924,18.477c0.021-0.236-0.011-0.517-0.097-0.84c-0.065-0.322,0.011-0.688,0.226-1.097
	c0.323-0.754,0.646-1.194,0.969-1.323c0.215-0.107,0.333-0.323,0.355-0.646c0.021-0.301,0.172-0.657,0.452-1.066
	c0.172-0.366,0.183-0.72,0.032-1.065c-0.021-0.172-0.097-0.333-0.225-0.484c-0.13-0.194-0.269-0.301-0.42-0.322
	c-0.366-0.13-0.592-0.301-0.678-0.518c-0.087-0.107-0.193-0.193-0.323-0.258c-0.173-0.086-0.249-0.227-0.227-0.42
	c0.022-0.128-0.042-0.269-0.193-0.419c-0.15-0.151-0.237-0.324-0.258-0.518c-0.023-0.624,0.031-0.978,0.16-1.064
	c0.151-0.13,0.216-0.27,0.195-0.42c0-0.215,0.171-0.656,0.516-1.324c0.409-0.774,0.678-1.226,0.807-1.354
	c0.086-0.065,0.162-0.205,0.226-0.42c0.087-0.172,0.205-0.322,0.356-0.452C4.925,4.379,5.001,4.261,5.023,4.11
	c0.064-0.193,0.171-0.333,0.322-0.419c0.129-0.043,0.259-0.194,0.388-0.452C6.076,2.614,6.345,2.314,6.54,2.335
	c0.193,0,0.354-0.043,0.484-0.13c0.215-0.128,0.484-0.15,0.808-0.064C8.088,2.228,8.283,2.26,8.413,2.239
	c0.344-0.086,0.742,0,1.194,0.257c0.516,0.367,0.785,0.754,0.807,1.162c0.022,0.388-0.042,0.625-0.193,0.71
	c-0.345,0.281-0.625,0.41-0.839,0.388c-0.258-0.021-0.43,0.011-0.516,0.097C8.691,4.982,8.499,5.037,8.283,5.014
	c-0.195-0.043-0.366,0-0.517,0.129C7.636,5.251,7.53,5.305,7.444,5.305c-0.13-0.021-0.259,0.043-0.388,0.194
	c-0.173,0.215-0.27,0.388-0.291,0.517c-0.042,0.236-0.13,0.387-0.258,0.45C6.357,6.597,6.239,6.79,6.151,7.049
	C6.044,7.328,5.948,7.479,5.861,7.5c-0.15,0.108-0.269,0.42-0.354,0.937C5.226,9.017,5.151,9.449,5.28,9.728
	c0.237,0.367,0.43,0.592,0.581,0.678c0.151,0.043,0.237,0.108,0.258,0.194c0.064,0.172,0.226,0.27,0.484,0.29
	c0.238,0.022,0.389,0.065,0.453,0.13c0.301,0.151,0.548,0.118,0.743-0.097c0.172-0.172,0.333-0.27,0.484-0.291
	c0.236-0.021,0.398-0.171,0.484-0.452c0.065-0.151,0.14-0.258,0.226-0.323C9.209,9.728,9.36,9.502,9.445,9.179
	c0.086-0.236,0.172-0.397,0.259-0.484c0.15-0.171,0.193-0.333,0.129-0.484C9.81,8.04,9.595,7.845,9.188,7.629
	C9.015,7.522,9.004,7.296,9.155,6.951c0.107-0.215,0.302-0.323,0.581-0.323c0.151-0.021,0.29-0.075,0.419-0.163
	c0.15-0.106,0.322-0.116,0.517-0.031C10.8,6.5,10.973,6.531,11.188,6.531c0.603,0.044,1.098,0.323,1.485,0.84
	C12.91,7.694,12.986,7.92,12.9,8.049c-0.108,0.173-0.097,0.399,0.032,0.678c0.086,0.259,0.086,0.518,0,0.774
	c-0.173,0.388-0.366,0.593-0.582,0.614c-0.538,0.172-0.947,0.399-1.227,0.678c-0.194,0.172-0.302,0.355-0.323,0.549
	c-0.064,0.107-0.107,0.226-0.129,0.355c0,0.063,0.01,0.107,0.032,0.128c0.042,0.215,0.075,0.484,0.097,0.808
	c0.021,0.021,0.043,0.042,0.064,0.064c0.065,0.13,0.141,0.205,0.227,0.227c0.215,0.086,0.366,0.258,0.451,0.515
	c0.087,0.216,0.205,0.398,0.355,0.549c0.151,0.086,0.269,0.27,0.355,0.549c0.172,0.453,0.269,0.85,0.292,1.195
	c0.042,0.452,0.106,0.786,0.193,1c0.107,0.301,0.15,0.56,0.129,0.773c-0.022,0.475-0.162,0.873-0.42,1.194
	c-0.173,0.173-0.354,0.302-0.549,0.388c-0.107,0.13-0.269,0.27-0.484,0.42c-0.409,0.258-0.753,0.561-1.033,0.904
	c-0.409,0.494-1,0.775-1.775,0.839c-0.302,0-0.591,0.042-0.872,0.129c-0.366,0.086-0.71,0.033-1.033-0.161
	c-0.43-0.238-0.84-0.344-1.227-0.322c-0.624,0.043-1.227-0.172-1.808-0.646C3.149,19.413,2.902,18.82,2.924,18.477 M3.117,23.32
	c0.151-0.604,0.42-0.969,0.807-1.098c0.366-0.106,0.679,0.01,0.936,0.355c0.195,0.322,0.195,0.753,0,1.291
	c-0.042,0.387-0.054,0.786-0.032,1.195c0.107,0.408,0.086,0.785-0.065,1.129c-0.15,0.365-0.355,0.688-0.613,0.969
	c-0.151,0.322-0.291,0.688-0.42,1.098c-0.108,0.432-0.291,0.71-0.548,0.84c-0.259,0.172-0.582,0.215-0.969,0.129
	c-0.367-0.108-0.592-0.355-0.678-0.744c-0.108-0.43-0.098-0.871,0.032-1.323c0.172-0.345,0.291-0.752,0.355-1.228
	c0-0.688,0.226-1.303,0.678-1.841C2.858,23.836,3.031,23.579,3.117,23.32"/>
<path fill="#CD1D1C" d="M48.123,6.854c0.818-0.172,1.625-0.183,2.421-0.032c0.624,0.172,1.173,0.194,1.647,0.065
	c0.581-0.15,1.065-0.119,1.453,0.097c0.387,0.28,0.591,0.657,0.614,1.13c-0.087,0.452-0.269,0.753-0.55,0.903
	C53.321,9.19,52.955,9.201,52.61,9.05c-0.667-0.171-1.259-0.183-1.775-0.033c-0.624,0.237-1.206,0.248-1.743,0.033
	c-0.538-0.128-1.259-0.086-2.163,0.13c-0.667,0.214-1.238,0.214-1.712,0c-0.344-0.28-0.506-0.625-0.484-1.034
	c0.042-0.388,0.204-0.721,0.484-1.001c0.28-0.28,0.657-0.344,1.13-0.194C46.799,7.103,47.391,7.07,48.123,6.854 M45.669,26.064
	c0.214-0.26,0.495-0.463,0.84-0.613c0.323-0.15,0.612-0.356,0.871-0.614c0.452-0.321,0.818-0.56,1.098-0.709
	c0.496-0.301,1.108-0.688,1.84-1.162c0.582-0.432,1-0.723,1.259-0.873c0.15-0.258,0.355-0.463,0.614-0.612
	c0.602-0.366,1.172-0.787,1.71-1.26c0.431-0.301,0.807-0.41,1.131-0.324c0.495,0.131,0.731,0.42,0.71,0.873
	c-0.086,0.432-0.366,0.787-0.839,1.065c-0.236,0.151-0.452,0.366-0.645,0.646c-0.496,0.41-0.948,0.775-1.356,1.099
	c-0.345,0.172-0.624,0.43-0.84,0.774c-0.495,0.474-0.947,0.807-1.356,1c-0.107,0.215-0.172,0.453-0.193,0.711
	c-0.086,0.365-0.14,0.559-0.162,0.58c-0.171-0.021-0.354-0.021-0.548,0c-0.151,0.021-0.367,0.043-0.646,0.064
	c-0.087,0-0.141,0.011-0.163,0.033c-0.021,0-0.042,0.011-0.064,0.031c-0.301,0.193-0.56,0.431-0.775,0.711
	c-0.215,0.215-0.592,0.43-1.13,0.645c-0.301,0.129-0.624,0.367-0.969,0.71c-0.279,0.216-0.753,0.463-1.42,0.743
	c-0.883,0.43-1.497,0.656-1.84,0.678c-0.195-0.021-0.517,0.129-0.969,0.451c-0.517,0.344-1.013,0.527-1.485,0.55
	c-0.603,0.063-1.066,0-1.388-0.194c-0.41-0.258-0.679-0.646-0.808-1.162c-0.064-0.366,0.107-0.754,0.518-1.163
	c0.387-0.388,0.871-0.591,1.452-0.613c0.99-0.128,1.679-0.323,2.066-0.58c0.258-0.172,0.645-0.301,1.162-0.388
	C44.55,26.709,45.325,26.344,45.669,26.064 M54.385,31.037c-0.538,0.215-0.947,0.29-1.226,0.227
	c-0.366-0.131-0.657-0.207-0.872-0.227c-0.453-0.064-0.744-0.206-0.872-0.42c-0.087-0.237-0.227-0.463-0.42-0.678
	c-0.194-0.172-0.301-0.366-0.323-0.582c-0.042-0.172-0.129-0.334-0.258-0.484c-0.236-0.323-0.366-0.657-0.387-1.001
	c-0.022-0.366,0.064-0.614,0.258-0.743c0.301-0.215,0.688-0.193,1.162,0.064c0.215,0.13,0.462,0.301,0.743,0.518
	c0.15,0.085,0.301,0.129,0.451,0.129c0.41,0.129,1.012,0.086,1.808-0.129c1.033-0.193,1.689-0.431,1.97-0.71
	c0.106-0.173,0.258-0.271,0.452-0.292c0.452-0.193,0.946-0.624,1.485-1.291c0.193-0.277,0.365-0.495,0.516-0.646
	c0.387-0.387,0.71-1.012,0.968-1.873c0.172-0.903,0.162-1.549-0.032-1.937c-0.237-0.688-0.657-1.302-1.259-1.84
	c-0.107-0.063-0.205-0.106-0.291-0.128c-0.301,0.021-0.528,0.043-0.678,0.064c-0.324,0.063-0.582,0.107-0.775,0.127
	c-0.216,0.045-0.387,0.076-0.517,0.1c-0.129-0.021-0.236-0.238-0.322-0.646c-0.13-0.43-0.269-0.807-0.42-1.13
	c-0.085-0.128-0.141-0.226-0.162-0.29c-0.107-0.044-0.237-0.064-0.388-0.064c-0.56-0.107-0.947-0.118-1.162-0.032
	c-0.41,0.106-0.722,0.128-0.937,0.063h-0.064c-0.108,0.323-0.367,0.614-0.776,0.873c-0.236,0.15-0.43,0.334-0.581,0.549
	c-0.431,0.365-0.851,0.688-1.26,0.968c-0.301,0.172-0.56,0.397-0.775,0.678c-0.473,0.41-0.882,0.71-1.226,0.904
	c-0.215,0.108-0.432,0.27-0.646,0.485c-0.323,0.322-0.656,0.58-1,0.773c-0.28,0.129-0.527,0.324-0.742,0.581
	c-0.216,0.235-0.559,0.431-1.034,0.582c-0.258,0.106-0.549,0.323-0.872,0.646c-0.28,0.172-0.721,0.387-1.324,0.646
	c-0.797,0.365-1.355,0.549-1.678,0.549c-0.172-0.021-0.463,0.107-0.872,0.387c-0.453,0.301-0.905,0.463-1.355,0.485
	c-0.561,0.042-0.979-0.033-1.259-0.226c-0.388-0.237-0.624-0.592-0.71-1.066c-0.064-0.301,0.097-0.646,0.484-1.033
	c0.366-0.345,0.808-0.527,1.324-0.549c0.925-0.085,1.561-0.236,1.905-0.45c0.214-0.13,0.559-0.237,1.032-0.323
	c1.098-0.365,1.808-0.688,2.131-0.97c0.193-0.215,0.462-0.387,0.807-0.516c0.301-0.15,0.559-0.333,0.775-0.55
	c0.409-0.278,0.752-0.482,1.032-0.612c0.474-0.28,1.044-0.624,1.712-1.034c0.538-0.365,0.915-0.624,1.13-0.775
	c0.172-0.192,0.366-0.364,0.582-0.516c0.473-0.259,0.913-0.549,1.323-0.873l-0.032-0.031c-0.301-0.173-0.452-0.496-0.452-0.97
	c0.021-0.452,0.269-0.774,0.742-0.968c0.474-0.151,0.915-0.215,1.324-0.194c0.409,0.022,0.85,0.075,1.324,0.162
	c0.495,0.172,0.873,0.215,1.13,0.128c0.172-0.064,0.398-0.085,0.679-0.064c0.258,0.129,0.559,0.183,0.903,0.162
	c0.215-0.043,0.462,0.032,0.743,0.226c0.473,0.345,0.968,0.613,1.484,0.809c0.452,0.192,0.754,0.43,0.904,0.709
	c0.301,0.344,0.721,0.722,1.259,1.131c0.237,0.172,0.366,0.42,0.388,0.742c0.129,0.237,0.291,0.56,0.484,0.969
	c0.215,0.259,0.312,0.56,0.291,0.904c0.043,0.258,0.141,0.483,0.291,0.678c0.107,0.172,0.119,0.354,0.033,0.549
	c-0.13,0.236-0.151,0.527-0.065,0.871c0.151,0.238,0.086,0.723-0.194,1.453c-0.043,0.172-0.065,0.398-0.065,0.679
	c0,0.366-0.205,0.872-0.612,1.517c-0.539,0.646-0.904,0.979-1.099,1.001c-0.15,0.108-0.29,0.302-0.419,0.582
	c-0.322,0.431-0.818,0.851-1.485,1.261c-1.334,0.902-2.238,1.397-2.712,1.483C55.398,30.669,54.923,30.82,54.385,31.037
	 M43.86,4.756c-0.624-0.172-0.936-0.495-0.936-0.968c-0.021-0.474,0.141-0.84,0.484-1.098c0.41-0.345,0.915-0.527,1.518-0.549
	c0.366-0.021,0.753-0.075,1.162-0.162c0.56-0.215,1.195-0.323,1.905-0.323c0.882-0.021,1.583,0.011,2.099,0.097
	c0.667,0.173,1.366,0.215,2.099,0.129c1.119-0.15,2.108-0.02,2.969,0.388c0.216,0.151,0.528,0.215,0.937,0.194
	c0.452,0.021,0.915,0.226,1.389,0.614c0.538,0.322,0.816,0.613,0.839,0.872c0.021,0.258,0.139,0.484,0.354,0.678
	c0.28,0.301,0.409,0.85,0.388,1.646c0.064,0.387,0.162,0.721,0.291,1.001c0.172,0.279,0.258,0.721,0.258,1.324v1.937
	c-0.021,0.903-0.236,1.561-0.646,1.969c-0.323,0.495-0.85,0.883-1.582,1.163c-0.517,0.301-1.195,0.408-2.035,0.322
	c-0.58-0.042-1.076-0.021-1.484,0.065c-0.474,0.172-0.915,0.193-1.324,0.064c-0.388-0.172-0.786-0.194-1.194-0.064
	c-0.474,0.237-0.916,0.258-1.324,0.064c-0.301-0.13-0.625-0.151-0.969-0.064c-0.108,0.387-0.259,0.754-0.452,1.097
	c-0.194,0.302-0.484,0.593-0.872,0.872c-0.194,0.15-0.366,0.334-0.516,0.55c-0.151,0.323-0.356,0.526-0.615,0.612
	c-0.301,0.108-0.559,0.271-0.774,0.485c-0.366,0.388-0.786,0.656-1.259,0.808c-0.367,0.172-0.721,0.366-1.066,0.58
	c-0.302,0.237-0.754,0.366-1.356,0.389c-0.516,0.021-0.968,0.16-1.355,0.419c-0.41,0.194-0.721,0.28-0.937,0.258
	c-0.259-0.021-0.462,0.001-0.613,0.065c-0.516,0.193-1.044,0.215-1.582,0.063c-0.43-0.129-0.657-0.269-0.678-0.419
	c-0.021-0.172-0.076-0.27-0.161-0.29c-0.087-0.063-0.141-0.205-0.162-0.42c-0.043-0.345,0.042-0.646,0.258-0.904
	c0.194-0.194,0.484-0.354,0.872-0.483c0.409-0.107,0.817-0.119,1.227-0.032c0.279,0.065,0.624,0.096,1.033,0.096
	c0.409-0.042,0.785-0.161,1.13-0.354c0.322-0.258,0.689-0.398,1.098-0.42c0.408-0.064,0.774-0.236,1.097-0.517
	c0.301-0.237,0.625-0.387,0.968-0.452c0.496-0.236,0.904-0.549,1.228-0.937c0.129-0.258,0.258-0.462,0.388-0.613
	c-0.539-0.173-1.045-0.15-1.518,0.064c-0.323,0.129-0.839,0.086-1.55-0.129c-0.753-0.194-1.205-0.462-1.356-0.807
	c-0.064-0.345-0.301-0.657-0.709-0.937c-0.323-0.194-0.452-0.624-0.387-1.292c-0.022-1.011-0.076-1.84-0.163-2.485
	c-0.107-0.388-0.118-0.775-0.032-1.163c0.043-0.258,0.054-0.527,0.032-0.807c-0.021-0.581,0.076-1.098,0.291-1.549
	c0.151-0.323,0.334-0.56,0.549-0.71c0.194-0.15,0.397-0.237,0.613-0.258c0.258,0.043,0.485,0.107,0.678,0.194
	c0.194,0.172,0.333,0.419,0.42,0.742c0.15,0.387,0.182,1.012,0.096,1.873c-0.15,1.034-0.183,1.819-0.096,2.357
	c0.128,0.688,0.301,1.173,0.516,1.452c0.258,0.453,0.657,0.754,1.195,0.904c0.796,0.237,1.678,0.216,2.647-0.065
	c1.249-0.365,2.464-0.408,3.648-0.128c0.753,0.172,1.42,0.151,2.002-0.064c0.58-0.173,1.237-0.248,1.968-0.226
	c0.625,0.086,1.109-0.075,1.453-0.485c0.28-0.215,0.517-0.613,0.711-1.195c0.086-0.644,0.032-1.204-0.162-1.678
	c-0.151-0.431-0.226-0.818-0.226-1.163c-0.022-0.236-0.076-0.484-0.161-0.743c-0.259-0.322-0.399-0.548-0.42-0.678
	c-0.087-0.257-0.205-0.43-0.354-0.516c-0.238-0.086-0.432-0.193-0.582-0.323c-0.216-0.279-1.195-0.463-2.938-0.549
	c-1.206,0.022-2.206-0.01-3.002-0.097c-1.077-0.215-2.078-0.096-3.003,0.355C45.346,4.767,44.592,4.886,43.86,4.756"/>
<rect x="68.406" y="1.55" fill="#CD1D1C" width="68.389" height="29.896"/>
<g>
	<path fill="#FFFFFF" d="M73.313,13.674l1.66,0.148h6.759c0.138-0.514,0.297-1.077,0.475-1.69c0.178-0.612,0.301-1.062,0.371-1.349
		c0.069-0.286,0.163-0.766,0.282-1.438l0.178-1.067c0.039-0.237,0.074-0.386,0.104-0.445c0.029-0.06,0.222-0.019,0.578,0.119
		c0.276,0.139,0.884,0.371,1.823,0.697c0.938,0.326,1.388,0.627,1.349,0.904c-0.04,0.159-0.385,0.356-1.038,0.593
		c-0.949,1.245-1.878,2.471-2.787,3.676h1.986c0.493-0.534,0.86-0.983,1.097-1.349c0.237-0.365,0.41-0.553,0.519-0.563
		c0.108-0.009,0.262,0.055,0.459,0.193c0.356,0.296,0.775,0.702,1.26,1.216c0.484,0.514,0.707,0.82,0.667,0.919
		c-0.041,0.1-0.139,0.148-0.297,0.148h-7.441c1.106,0.317,1.724,0.521,1.853,0.608c0.128,0.089,0.188,0.208,0.178,0.356
		c-0.011,0.148-0.213,0.302-0.608,0.459v2.224h1.957c0.454-0.553,0.795-0.969,1.023-1.246c0.227-0.276,0.395-0.419,0.504-0.43
		c0.108-0.01,0.271,0.055,0.489,0.192c0.315,0.257,0.721,0.613,1.215,1.067c0.494,0.455,0.721,0.73,0.682,0.83
		c-0.041,0.099-0.139,0.146-0.296,0.146H82.74v8.836c0,0.651-0.163,1.204-0.489,1.659c-0.326,0.454-1.013,0.697-2.061,0.728
		c-1.048,0.028-1.591,0.004-1.63-0.074c-0.041-0.02-0.055-0.133-0.044-0.342c0.009-0.207-0.035-0.459-0.134-0.756
		c-0.257-0.633-0.711-1.097-1.364-1.393l-0.623-0.268c-0.277-0.1-0.385-0.197-0.326-0.295c0.06-0.101,0.167-0.148,0.326-0.148
		l0.83,0.089l1.305,0.147c0.771,0.08,1.156-0.188,1.156-0.799v-7.383h-3.914l-1.245,0.09l-0.8-0.801l1.512,0.148h4.447v-3.647
		h-4.299l-1.245,0.089L73.313,13.674z M73.52,7.033l1.719,0.178h4.892c-0.198-0.138-0.376-0.292-0.534-0.459
		c-0.159-0.167-0.257-0.469-0.296-0.904l-0.03-1.482c-0.04-0.336-0.109-0.612-0.208-0.83c-0.1-0.217-0.208-0.395-0.326-0.534
		l-0.385-0.296c-0.139-0.079-0.204-0.178-0.193-0.296c0.01-0.119,0.232-0.158,0.667-0.119l0.682,0.089
		c1.897,0.396,2.95,0.934,3.157,1.616c0.208,0.682,0.301,1.28,0.282,1.793c-0.02,0.515-0.385,0.989-1.097,1.423h2.342
		c0.553-0.671,0.968-1.181,1.245-1.527c0.276-0.345,0.484-0.528,0.623-0.548c0.138-0.019,0.356,0.079,0.652,0.296
		c0.119,0.119,0.434,0.405,0.949,0.86c0.514,0.455,0.845,0.767,0.993,0.934c0.148,0.168,0.202,0.307,0.163,0.415
		c-0.041,0.109-0.129,0.163-0.267,0.163H75.654l-1.245,0.06L73.52,7.033z M78.708,21.175c-0.83,1.542-1.438,2.624-1.823,3.246
		c-0.385,0.622-0.993,1.438-1.823,2.446l-0.652,0.801c-0.139,0.178-0.267,0.241-0.385,0.191c-0.119-0.049-0.129-0.191-0.03-0.43
		l0.445-1.186c0.276-0.711,0.523-1.689,0.741-2.936c0.217-1.244,0.345-2.055,0.385-2.431l0.089-1.067v-0.326
		c0.06-0.118,0.247-0.127,0.563-0.029l0.979,0.208c0.612,0.159,1.141,0.332,1.586,0.519c0.445,0.188,0.667,0.332,0.667,0.43
		C79.429,20.811,79.183,20.997,78.708,21.175z M77.641,8.456c2.016,0.87,2.965,1.977,2.846,3.32
		c-0.059,0.456-0.267,0.875-0.623,1.26c-0.355,0.385-0.806,0.554-1.349,0.504c-0.544-0.049-0.904-0.247-1.083-0.593
		c-0.178-0.345-0.257-0.697-0.237-1.053l0.148-1.275c0-0.256-0.02-0.563-0.059-0.919c-0.06-0.256-0.119-0.454-0.178-0.593
		l-0.384-0.621c-0.079-0.237,0.049-0.306,0.386-0.208L77.641,8.456z M84.252,20.255c0.475,0.119,0.949,0.263,1.423,0.431
		s0.938,0.504,1.394,1.008c0.454,0.504,0.686,1.022,0.696,1.557c0.01,0.534-0.124,0.993-0.4,1.378
		c-0.277,0.386-0.697,0.604-1.26,0.652c-0.563,0.05-0.993-0.152-1.29-0.608c-0.159-0.197-0.263-0.538-0.311-1.021
		c-0.05-0.484-0.124-0.93-0.223-1.334c-0.1-0.404-0.233-0.727-0.4-0.963c-0.168-0.237-0.331-0.445-0.489-0.623
		c-0.159-0.179-0.263-0.342-0.312-0.489c-0.05-0.148,0.104-0.193,0.459-0.134L84.252,20.255z M92.376,6.055
		c1.186-0.494,2.45-1.216,3.795-2.165l0.682-0.474l0.386-0.326c0.039,0,0.098,0,0.178,0c0.119,0.04,0.652,0.415,1.601,1.126
		c0.949,0.712,1.501,1.176,1.66,1.394c0.158,0.218,0.217,0.381,0.178,0.489c-0.04,0.109-0.198,0.173-0.474,0.193L98.928,6.41
		l-3.439,0.326l-2.905,0.267l-0.03,6.552h4.862c0.968-1.383,1.601-2.075,1.897-2.075c0.078,0.02,0.227,0.129,0.445,0.326
		c0.217,0.198,0.632,0.554,1.245,1.067c0.612,0.515,0.884,0.845,0.815,0.993c-0.07,0.148-0.203,0.222-0.4,0.222h-2.283
		c-0.139,0.277-0.347,0.495-0.623,0.652v11.177l0.178,2.995c-0.041,0.236-0.148,0.484-0.326,0.74
		c-0.178,0.257-0.702,0.396-1.571,0.416c-0.871,0.019-1.354-0.035-1.453-0.163c-0.1-0.13-0.159-0.332-0.178-0.608l0.208-3.408
		V14.088h-2.875c-0.041,1.245-0.085,2.512-0.133,3.795c-0.05,1.286-0.237,2.62-0.563,4.002c-0.326,1.385-0.815,2.471-1.467,3.262
		c-0.652,0.789-1.419,1.521-2.298,2.193c-0.88,0.671-1.508,1.105-1.883,1.305l-0.889,0.475c-0.237,0.138-0.396,0.158-0.475,0.059
		c-0.079-0.099-0.05-0.208,0.089-0.326l1.067-0.918c0.514-0.436,1.086-1.138,1.72-2.105c0.632-0.969,1.092-2.051,1.378-3.246
		s0.43-3.146,0.43-5.855l-0.03-6.374c-0.02-0.237-0.04-0.81-0.059-1.72l-0.09-2.43l-0.089-1.156c0-0.078,0.019-0.143,0.06-0.192
		c0.039-0.049,0.217-0.015,0.534,0.104L92.376,6.055z"/>
	<path fill="#FFFFFF" d="M108.8,8.426v16.426l0.119,3.527c-0.04,0.217-0.124,0.426-0.252,0.623
		c-0.129,0.197-0.583,0.321-1.364,0.371c-0.781,0.049-1.235,0.02-1.364-0.089c-0.129-0.109-0.222-0.322-0.282-0.638l0.119-4.506
		V9.88l-0.119-3.439c0.04-0.119,0.128-0.178,0.267-0.178c0.612,0.04,1.299,0.173,2.061,0.4c0.76,0.228,1.234,0.396,1.423,0.504
		c0.188,0.109,0.291,0.242,0.312,0.4C109.738,7.726,109.432,8.011,108.8,8.426z M108.83,21.855h1.216l1.868-0.029V10.798h-0.979
		l-1.008,0.089l-0.475-0.682l2.995,0.089h9.576c0.909-1.205,1.461-1.808,1.661-1.808c0.197,0.02,0.695,0.361,1.496,1.022
		c0.801,0.663,1.172,1.053,1.113,1.171c-0.061,0.119-0.119,0.178-0.18,0.178h-3.111c-0.059,0.237-0.1,0.356-0.119,0.356
		l-0.445,0.415v9.31l0.356-0.03c0.632-1.067,0.997-1.655,1.097-1.765c0.098-0.107,0.207-0.173,0.326-0.192
		c0.197-0.019,0.67,0.263,1.422,0.845c0.75,0.583,1.127,0.945,1.127,1.082c-0.02,0.178-0.139,0.268-0.355,0.268l-3.972,0.325v2.994
		l0.089,2.787c-0.06,0.158-0.144,0.312-0.252,0.459c-0.109,0.147-0.544,0.267-1.304,0.354c-0.761,0.09-1.186,0.074-1.275-0.043
		c-0.089-0.119-0.144-0.248-0.163-0.386l0.089-2.46v-3.439l-8.568,0.652l-1.542,0.209l-0.623-0.652L108.83,21.855z M109.512,2.467
		c-0.041-0.019-0.074-0.083-0.104-0.193c-0.03-0.108,0.123-0.143,0.459-0.104c0.691,0.119,1.314,0.263,1.868,0.43
		c0.553,0.168,1.127,0.42,1.72,0.756c0.593,0.336,0.979,0.751,1.156,1.245c0.178,0.494,0.271,0.969,0.282,1.423
		c0.009,0.456-0.174,0.9-0.548,1.334c-0.376,0.436-0.86,0.658-1.453,0.667c-0.593,0.011-1.019-0.143-1.274-0.459
		c-0.178-0.178-0.297-0.493-0.356-0.949l-0.119-1.126c-0.08-0.514-0.208-0.998-0.385-1.453c-0.178-0.454-0.4-0.795-0.667-1.023
		C109.823,2.789,109.63,2.606,109.512,2.467z M114.611,13.674h5.01v-2.816h-4.447c-0.178,0.198-0.367,0.366-0.563,0.504V13.674z
		 M114.611,17.202h5.01v-2.995h-5.01V17.202z M114.611,21.561l5.01-0.386v-3.469h-5.01V21.561z M118.139,5.313h8.449
		c0.633-0.849,1.027-1.294,1.186-1.334c0.297-0.019,0.936,0.262,1.912,0.845c0.98,0.583,1.467,0.993,1.467,1.23
		c-0.02,0.277-0.354,0.583-1.008,0.919v20.872c0,0.515-0.063,0.929-0.191,1.245c-0.131,0.315-0.629,0.604-1.498,0.86
		c-0.869,0.256-1.563,0.364-2.074,0.325c-0.199,0-0.326-0.029-0.385-0.088c-0.061-0.061-0.131-0.248-0.209-0.563
		s-0.184-0.644-0.311-0.979c-0.129-0.336-0.59-0.651-1.379-0.949l-0.859-0.295c-0.158-0.041-0.223-0.125-0.193-0.252
		c0.031-0.129,0.123-0.192,0.283-0.192l1.008,0.118c0.592,0.078,1.205,0.099,1.838,0.06c0.295,0,0.504-0.06,0.623-0.178
		c0.119-0.119,0.178-0.308,0.178-0.563V5.847h-8.271l-1.838,0.089l-0.682-0.711L118.139,5.313z"/>
</g>
<g>
	<path fill="#454444" d="M169.666,29.468c-0.652,0.636-2.055,0.99-4.199,1.064c-0.281,0-0.457-0.038-0.533-0.112
		c-0.074-0.094-0.121-0.309-0.139-0.645c-0.225-2.071-1.4-3.471-3.529-4.199c-0.15-0.075-0.215-0.178-0.195-0.309
		c0.059-0.148,0.168-0.215,0.336-0.195c2.766,0.279,4.268,0.354,4.51,0.224c0.168-0.13,0.252-0.345,0.252-0.644v-3.305h-9.406v7.449
		c-0.02,0.672-0.168,1.102-0.449,1.288c-0.393,0.28-1.063,0.457-2.016,0.532c-0.857,0.074-1.465,0.018-1.82-0.168
		c-0.262-0.149-0.393-0.7-0.393-1.652V17.23c-2.24,1.754-4.145,2.968-5.711,3.64c-0.15,0.056-0.264,0.047-0.336-0.028
		c-0.096-0.148,0.027-0.308,0.363-0.476c3.547-3.323,5.992-7.402,7.336-12.237h-7.477c-0.244,0-0.365-0.14-0.365-0.42
		c0-0.243,0.121-0.364,0.365-0.364h7.729c0.373-1.213,0.709-2.558,1.01-4.033c0.037-0.205,0.094-0.345,0.168-0.42
		c0.111-0.056,0.232-0.074,0.363-0.056l4.898,0.672c0.469,0.094,0.711,0.29,0.729,0.588c-0.02,0.318-0.252,0.532-0.699,0.644
		c-0.393,0.094-0.625,0.29-0.699,0.588c-0.262,0.71-0.504,1.382-0.729,2.017h8.039c1.551-2.035,2.418-3.052,2.604-3.052
		c0.168,0,0.346,0.083,0.533,0.252c1.322,1.139,2.389,2.044,3.189,2.716c0.188,0.188,0.279,0.346,0.279,0.476
		c-0.02,0.15-0.064,0.262-0.139,0.336c-0.037,0.038-0.086,0.056-0.143,0.056h-3.305h-0.225h-11.143
		c-0.561,1.381-1.072,2.474-1.539,3.276c-0.15,0.168-0.262,0.346-0.336,0.533H166l1.482-1.905c0.111-0.186,0.252-0.28,0.42-0.28
		c0.148,0,0.289,0.056,0.42,0.168l2.939,1.96c0.766,0.56,0.662,1.157-0.309,1.792c-0.242,0.168-0.363,0.364-0.363,0.588v12.38
		C170.609,27.909,170.303,28.852,169.666,29.468z M156.762,12.722v3.584h9.404v-3.584H156.762z M156.762,17.09v3.473h9.404V17.09
		H156.762z"/>
	<path fill="#454444" d="M179.725,20.395c0.111-0.037,0.195,0.039,0.252,0.225c0.689,2.128,0.746,3.949,0.168,5.461
		c-0.299,0.765-0.766,1.325-1.398,1.68c-0.637,0.354-1.271,0.467-1.904,0.336c-0.635-0.187-1.064-0.484-1.287-0.896
		c-0.73-1.308-0.338-2.324,1.176-3.052c1.625-1.027,2.549-2.186,2.771-3.474C179.574,20.507,179.648,20.414,179.725,20.395z
		 M185.297,7.905c0.111-0.896,0.168-1.857,0.168-2.884v-1.4c0-0.186,0.037-0.336,0.111-0.448c0.057-0.093,1.623-0.028,4.703,0.195
		c0.879,0.038,1.318,0.225,1.318,0.56c0.018,0.318-0.207,0.57-0.674,0.756c-0.375,0.168-0.563,0.43-0.563,0.784V4.657
		c0,1.083-0.094,2.166-0.277,3.249h5.318c1.551-2.035,2.418-3.052,2.605-3.052c0.168,0,0.346,0.083,0.531,0.252
		c1.324,1.139,2.391,2.044,3.191,2.716c0.188,0.187,0.279,0.346,0.279,0.476c-0.02,0.15-0.064,0.262-0.141,0.336
		c-0.037,0.038-0.082,0.056-0.141,0.056h-3.305h-0.225h-7.813c0.578,0.877,1.289,1.652,2.129,2.324
		c2.314,1.699,5.236,2.576,8.766,2.632c0.373,0,0.568,0.094,0.588,0.28c0,0.168-0.121,0.308-0.363,0.42
		c-0.934,0.486-1.598,1.821-1.988,4.005c-0.037,0.224-0.111,0.373-0.225,0.447c-0.094,0.094-0.43,0.057-1.008-0.111
		c-0.541-0.168-1.02-0.336-1.43-0.504c-3.695-1.476-6.086-4.286-7.168-8.43c-0.242,0.747-0.867,1.876-1.877,3.388
		c1.383,0,2.438,0.364,3.166,1.092c0.408,0.43,0.652,0.934,0.729,1.513c0.092,0.653,0,1.187-0.281,1.596
		c-0.354,0.523-0.783,0.851-1.287,0.98c-0.561,0.168-1.074,0.084-1.541-0.253c-0.391-0.297-0.699-0.764-0.924-1.399
		c-0.393-1.213-0.756-1.988-1.092-2.325c-2.465,1.998-5.992,3.333-10.586,4.005c-0.336,0.037-0.514-0.028-0.531-0.196
		c-0.02-0.149,0.084-0.253,0.309-0.308c2.258-0.673,4.236-1.746,5.938-3.222c1.85-1.661,2.996-3.641,3.443-5.937h-8.986
		c-0.244,0-0.365-0.14-0.365-0.42c0-0.243,0.121-0.364,0.365-0.364H185.297z M181.488,20.002c0.094-0.13,0.252-0.186,0.477-0.168
		l3.725,0.28c0.633,0.038,1.008,0.149,1.119,0.336c0.336,0.522,0.111,0.905-0.672,1.147c-0.168,0.057-0.252,0.196-0.252,0.42v2.297
		c0,0.447,0.094,0.709,0.279,0.783c0.188,0.15,0.877,0.215,2.072,0.196h2.576c0.896,0.019,1.633-0.121,2.213-0.42
		c0.354-0.28,0.783-1.344,1.287-3.192c0.057-0.187,0.148-0.271,0.279-0.252c0.148,0.019,0.225,0.111,0.225,0.279
		c0.148,1.344,0.479,2.139,0.98,2.38c0.541,0.206,0.85,0.458,0.924,0.756c0.148,0.411,0.158,0.935,0.027,1.568
		c-0.148,0.69-0.432,1.242-0.84,1.651c-0.881,0.971-2.529,1.446-4.957,1.429h-4.678c-2.48,0.149-4.004-0.112-4.563-0.785
		c-0.264-0.317-0.395-0.793-0.395-1.428v-6.806C181.357,20.273,181.414,20.114,181.488,20.002z M189.693,19.247
		c1.008,0.243,1.744,0.626,2.211,1.147c0.41,0.412,0.654,0.924,0.729,1.541c0.057,0.635-0.037,1.157-0.279,1.567
		c-0.373,0.522-0.813,0.851-1.314,0.979c-0.561,0.168-1.074,0.076-1.539-0.279c-0.395-0.317-0.73-0.896-1.01-1.736
		c-0.543-1.418-1.215-2.408-2.018-2.969c-0.094-0.074-0.141-0.148-0.141-0.225c0.02-0.092,0.111-0.148,0.281-0.166
		C187.641,18.958,188.666,19.004,189.693,19.247z M199.857,22.243c1.064,0.84,1.719,1.69,1.961,2.548
		c0.262,0.561,0.336,1.158,0.225,1.793c-0.131,0.652-0.402,1.146-0.813,1.484c-0.543,0.41-1.094,0.605-1.652,0.588
		c-0.635-0.038-1.131-0.309-1.484-0.813c-0.242-0.374-0.42-1.438-0.531-3.192c-0.225-1.623-0.729-2.912-1.512-3.863
		c-0.057-0.075-0.074-0.168-0.057-0.28c0.057-0.073,0.168-0.103,0.336-0.084C197.6,20.796,198.775,21.402,199.857,22.243z"/>
	<path fill="#454444" d="M210.977,11.938h1.904V9.082c0-0.243,0.037-0.401,0.111-0.477c0.094-0.074,0.262-0.102,0.504-0.083
		l2.996,0.224c0.711,0.038,1.27,0.122,1.682,0.252c0.279,0.131,0.42,0.308,0.42,0.533c0,0.298-0.207,0.541-0.617,0.728
		c-0.391,0.168-0.588,0.393-0.588,0.672v1.008h3.445V9.083c0-0.243,0.037-0.401,0.111-0.477c0.094-0.074,0.262-0.102,0.504-0.083
		l2.996,0.224c0.709,0.038,1.27,0.122,1.682,0.252c0.277,0.131,0.42,0.308,0.42,0.533c0,0.298-0.207,0.541-0.617,0.728
		c-0.393,0.168-0.588,0.393-0.588,0.672v1.008h0.422c0.932-1.288,1.455-1.933,1.566-1.933c0.131,0,0.279,0.056,0.447,0.168
		c1.793,1.326,2.688,2.044,2.688,2.157c0,0.149-0.027,0.262-0.084,0.335c-0.057,0.038-0.094,0.056-0.111,0.056h-2.324h-0.168h-2.438
		v4.201c0,0.448-0.121,0.756-0.363,0.924l2.855,2.24c0.188,0.188,0.242,0.42,0.17,0.7c-0.113,0.28-0.434,0.429-0.953,0.448
		c-0.467,0.056-0.795,0.224-0.98,0.504c-1.008,1.176-2.154,2.269-3.441,3.277c2.164,0.521,4.658,0.773,7.477,0.756
		c0.43-0.039,0.652,0.027,0.672,0.195c0.037,0.168-0.064,0.317-0.309,0.448c-0.822,0.374-1.289,1.483-1.4,3.333
		c-0.037,0.43-0.094,0.672-0.168,0.729c-0.146,0.056-0.373,0.074-0.672,0.056c-3.938-0.168-7.113-1.177-9.52-3.024
		c-4.053,1.904-7.938,2.818-11.65,2.745c-0.148,0-0.234-0.065-0.252-0.196c-0.02-0.187,0.111-0.279,0.393-0.279
		c3.008-0.616,6.105-2.1,9.299-4.452c-1.178-1.401-2.129-3.286-2.855-5.657h-1.904c-0.242,0-0.363-0.14-0.363-0.42
		c0-0.261,0.121-0.382,0.363-0.364h10.191l0.896-0.728c-0.803,0-1.354-0.057-1.65-0.167c-0.207-0.132-0.318-0.486-0.336-1.064V16.53
		h-3.445v0.056c0,0.521-0.168,0.85-0.504,0.98c-0.43,0.148-1.035,0.233-1.82,0.252c-0.877,0.019-1.492-0.037-1.848-0.168
		c-0.207-0.131-0.318-0.485-0.336-1.064v-3.865h-1.904v0.98c-0.02,3.771-0.262,6.619-0.729,8.541
		c-0.877,3.473-2.949,6.133-6.217,7.98c-0.318,0.149-0.514,0.158-0.588,0.028c-0.094-0.149-0.057-0.29,0.111-0.42
		c1.959-2.241,2.939-7.505,2.939-15.794v-7.84c0.02-0.336,0.094-0.532,0.225-0.588c0.131-0.074,0.336-0.047,0.615,0.084
		c1.887,0.747,3.48,1.372,4.789,1.876h5.938c-0.41-0.429-0.645-0.933-0.701-1.513c0.059-1.288-0.205-2.193-0.783-2.716
		c-0.131-0.112-0.188-0.224-0.166-0.336c0.035-0.112,0.148-0.158,0.336-0.14c1.66-0.168,3.031,0.14,4.115,0.924
		c0.521,0.355,0.85,0.813,0.979,1.373c0.039,0.784-0.148,1.465-0.561,2.044c-0.148,0.131-0.262,0.252-0.336,0.364h3.332
		c1.346-1.792,2.129-2.688,2.354-2.688c0.186,0.019,0.373,0.094,0.561,0.224c2.26,1.773,3.389,2.726,3.389,2.856
		c0,0.149-0.037,0.262-0.111,0.335c-0.074,0.038-0.121,0.056-0.141,0.056h-3.08h-0.225h-16.047v3.586H210.977z M214.195,19.667
		c0.637,1.399,1.521,2.417,2.66,3.052c0.521,0.317,1.074,0.625,1.652,0.924c1.324-1.231,2.391-2.557,3.189-3.976H214.195z
		 M217.389,12.722v3.025h3.445v-3.025H217.389z"/>
</g>
<g>
	<path fill="#454444" d="M240.355,9.285c-2.561,0-4.643-2.083-4.643-4.642c0-2.56,2.082-4.643,4.643-4.643
		C242.918,0,245,2.083,245,4.643C244.998,7.202,242.916,9.285,240.355,9.285z M240.355,1.5c-1.73,0-3.143,1.41-3.143,3.143
		c0,1.732,1.41,3.142,3.143,3.142s3.145-1.41,3.145-3.142C243.498,2.91,242.088,1.5,240.355,1.5z"/>
</g>
</svg>
