<?xml version="1.0" standalone="no"?>
<!DOCTYPE svg PUBLIC "-//W3C//DTD SVG 1.1//EN" "http://www.w3.org/Graphics/SVG/1.1/DTD/svg11.dtd" >
<svg xmlns="http://www.w3.org/2000/svg">
<metadata>
Created by FontForge 20120731 at Tue Oct  6 10:13:45 2015
 By Ads
</metadata>
<defs>
<font id="iconfont" horiz-adv-x="1024" >
  <font-face 
    font-family="iconfont"
    font-weight="500"
    font-stretch="normal"
    units-per-em="1024"
    panose-1="2 0 6 3 0 0 0 0 0 0"
    ascent="812"
    descent="-212"
    x-height="792"
    bbox="-4 -224 1922 812"
    underline-thickness="50"
    underline-position="-100"
    unicode-range="U+0078-E634"
  />
<missing-glyph horiz-adv-x="374" 
d="M34 0v682h272v-682h-272zM68 34h204v614h-204v-614z" />
    <glyph glyph-name=".notdef" horiz-adv-x="374" 
d="M34 0v682h272v-682h-272zM68 34h204v614h-204v-614z" />
    <glyph glyph-name=".null" horiz-adv-x="0" 
 />
    <glyph glyph-name="nonmarkingreturn" horiz-adv-x="341" 
 />
    <glyph glyph-name="x" unicode="x" horiz-adv-x="1001" 
d="M281 543q-27 -1 -53 -1h-83q-18 0 -36.5 -6t-32.5 -18.5t-23 -32t-9 -45.5v-76h912v41q0 16 -0.5 30t-0.5 18q0 13 -5 29t-17 29.5t-31.5 22.5t-49.5 9h-133v-97h-438v97zM955 310v-52q0 -23 0.5 -52t0.5 -58t-10.5 -47.5t-26 -30t-33 -16t-31.5 -4.5q-14 -1 -29.5 -0.5
t-29.5 0.5h-32l-45 128h-439l-44 -128h-29h-34q-20 0 -45 1q-25 0 -41 9.5t-25.5 23t-13.5 29.5t-4 30v167h911zM163 247q-12 0 -21 -8.5t-9 -21.5t9 -21.5t21 -8.5q13 0 22 8.5t9 21.5t-9 21.5t-22 8.5zM316 123q-8 -26 -14 -48q-5 -19 -10.5 -37t-7.5 -25t-3 -15t1 -14.5
t9.5 -10.5t21.5 -4h37h67h81h80h64h36q23 0 34 12t2 38q-5 13 -9.5 30.5t-9.5 34.5q-5 19 -11 39h-368zM336 498v228q0 11 2.5 23t10 21.5t20.5 15.5t34 6h188q31 0 51.5 -14.5t20.5 -52.5v-227h-327z" />
    <glyph glyph-name="uniE600" unicode="&#xe600;" horiz-adv-x="1927" 
d="M1751 710q35 0 66 -13.5t54.5 -36.5t37 -54.5t13.5 -65.5v-492q0 -36 -13.5 -66.5t-37 -54t-54.5 -37t-66 -13.5h-1584q-36 0 -66.5 13.5t-54 37t-37 54t-13.5 66.5v492q0 34 13.5 65.5t37 54.5t54 36.5t66.5 13.5h1584zM509 524h-63v-194h-192v194h-66v-453h66v188h192
v-188h63v453zM895 522h-321v-68h128v-384h65v384h128v68zM1408 522h-101l-118 -333l-128 333h-100v-453h61v330l121 -330h77l125 324v-324h63v453zM1794 135h-193v385h-64v-451h257v66z" />
    <glyph glyph-name="uniE601" unicode="&#xe601;" horiz-adv-x="1670" 
d="M1499 710q35 0 66 -13.5t54 -36.5t36.5 -54.5t13.5 -66.5v-491q0 -36 -13.5 -66.5t-36.5 -54t-54 -37t-66 -13.5h-1328q-36 0 -66.5 13.5t-54 37t-37 54t-13.5 66.5v491q0 35 13.5 66.5t37 54.5t54 36.5t66.5 13.5h1328zM518 105q48 38 67 111l-67 21q-12 -57 -42.5 -76
t-79.5 -19q-4 0 -25 2t-45 16.5t-43.5 47t-19.5 93.5q0 7 4.5 31t19 50.5t41.5 47t73 20.5q44 0 65.5 -18t39.5 -56l72 21q-19 63 -64 96t-112 33q-57 0 -107 -26q-50 -29 -76 -79q-26 -51 -26 -121q0 -62 23 -119q23 -53 69 -84q43 -29 116 -29q70 0 117 37zM881 331
q-58 16 -82 30t-24 37q0 28 24 43.5t79 15.5q25 0 40.5 -4.5t25.5 -12.5t17 -21t14 -30l56 5q0 3 -3 24.5t-18.5 45t-47 43t-88.5 19.5q-59 0 -92.5 -14t-50.5 -34t-21.5 -40.5t-4.5 -33.5q0 -36 20 -61t47 -40t52.5 -22.5t36.5 -10.5q33 -10 53.5 -20t31 -20t14.5 -18.5
t4 -15.5v-24q0 -11 -7.5 -19.5t-25 -13.5t-51.5 -5q-42 0 -65 9t-34 21t-12.5 27t-1.5 27h-66q0 -20 3.5 -46.5t21 -49.5t56 -38.5t109.5 -15.5q19 0 43.5 3t45 15.5t35 39.5t14.5 75q0 10 -2.5 26t-17 34.5t-44 36.5t-84.5 33zM1330 331q-36 8 -56 15t-30 15t-12.5 16.5
t-2.5 20.5q0 28 22 42.5t76 14.5q26 0 39.5 -4t21.5 -12t12.5 -20.5t12.5 -29.5l68 5q0 3 -3 24.5t-18.5 45t-47.5 43t-88 19.5q-58 0 -92.5 -14t-51.5 -34t-21.5 -40.5t-4.5 -33.5q0 -36 20.5 -63t47 -43.5t52 -25.5t37.5 -12q38 -10 58 -19t28 -16.5t8.5 -14.5t0.5 -14
q0 -13 -2 -22.5t-10.5 -17t-23.5 -11t-41 -3.5q-42 0 -63.5 11t-30.5 24t-9.5 25.5t-0.5 15.5h-74q0 -5 3.5 -29t21.5 -51t56 -48.5t108 -21.5q20 0 44.5 5.5t45 20.5t35 40.5t14.5 66.5q0 10 -0.5 26.5t-13.5 35t-43.5 36t-91.5 32.5z" />
    <glyph glyph-name="uniE602" unicode="&#xe602;" 
d="M128 812h889l-73 -844l-377 -115l-358 115zM840 557l21 128l-572 1l37 -384h372v-100l-125 -44l-130 46l-8 54l-102 -1l15 -135l219 -77l231 73l29 309h-405l-10 130h428z" />
    <glyph glyph-name="uniE603" unicode="&#xe603;" 
d="M419 500.5q-15 15.5 -37 15.5t-37 -15.5t-15 -37t15 -37.5q10 -10 23.5 -13.5t27 0t23.5 13.5q15 16 15 37.5t-15 37zM687 337l-80 80q-9 9 -22 8.5t-22 -10.5l-143 -143q-3 -3 -5 -6.5t-3 -7t-1 -7t1 -7t3.5 -7t4.5 -6.5l99 -97l27 -29q9 -9 20.5 -9t20.5 9l143 143
q9 9 10 21.5t-7 21.5zM512 791q-182 0 -320 -119q-133 -114 -163 -285q-8 -44 -8 -87q0 -100 39 -191t104.5 -156.5t156.5 -104.5t191 -39t191 39t156.5 104.5t104.5 156.5t39 191q0 80 -25 155t-70.5 135t-105.5 105.5t-135 70.5t-155 25zM848 243l-249 -248
q-10 -10 -24 -10.5t-23 9.5l-273 273l3 1h4q-5 5 -7 11t-2 15v247q0 36 26 36h244q15 0 28 -13v0l273 -273q10 -10 10 -24t-10 -24z" />
    <glyph glyph-name="uniE604" unicode="&#xe604;" 
d="M512 791q-182 0 -320 -119q-133 -114 -163 -285q-8 -44 -8 -87q0 -100 39 -191t104.5 -156.5t156.5 -104.5t191 -39t191 39t156.5 104.5t104.5 156.5t39 191q0 80 -25 155t-70.5 135t-105.5 105.5t-135 70.5t-155 25zM410 16l-77 -36l-7 85l-7 85l84 -49l83 -48zM764 491
l-28 -48l-177 -306l-72 42l177 306l-69 40l-177 -306l-73 42l177 306l28 48l35 61q42 -7 81 -24.5t71 -42t62 -57.5z" />
    <glyph glyph-name="uniE605" unicode="&#xe605;" 
d="M0 812h1024v-1024h-1024v1024zM713 312q-7 2 -9.5 3.5t-5 6t1.5 11.5q20 51 0 79t-68 27.5t-110 -26.5q-1 0 -3 -0.5t-6 -2t-6.5 -0.5t-4.5 3.5t1 8.5q20 65 -9 94q-33 33 -110 3t-153 -106q-119 -119 -119 -224q0 -64 49.5 -113.5t125.5 -74.5t161 -25q78 0 147.5 21
t115.5 54.5t72.5 73.5t26.5 78q0 41 -28.5 69t-68.5 40zM448 23q-99 -9 -174 30t-81.5 104t59.5 118t165 63t174 -29t81 -104q7 -71 -68 -126q-65 -46 -156 -56zM857 554q-25 29 -59 46.5t-69.5 21.5t-72.5 -3q-13 -2 -19.5 -13t-4 -23t13 -19t23.5 -5q26 6 51 2.5t49.5 -16
t42.5 -32.5q27 -30 35.5 -70.5t-4.5 -76.5q-3 -12 2.5 -23.5t17.5 -15.5t23.5 2t15.5 18q17 51 5.5 107.5t-50.5 99.5zM777 481q-19 21 -45.5 29.5t-52.5 2.5q-5 -1 -8.5 -3t-6 -5t-4.5 -7t-2.5 -8t0.5 -8q3 -11 12 -17t20 -3q5 1 10 1t10 -1t10 -3.5t9.5 -5.5t8.5 -7
q19 -22 10 -49q-3 -11 2 -20.5t15 -13.5q5 -1 10.5 -0.5t10 2.5t8 6t4.5 9q6 18 5.5 35.5t-7.5 34.5t-19 31zM461 271q-47 13 -94 -7.5t-67 -62.5q-11 -21 -11.5 -43t8 -41t25.5 -34t40 -22q50 -16 100.5 5t70.5 67q20 45 -1.5 85.5t-70.5 52.5zM413 127q-6 -10 -16.5 -16.5
t-22 -7.5t-22.5 4q-15 7 -19 22.5t6 30.5q6 9 16.5 15.5t21.5 7.5t21 -3q16 -7 20.5 -22.5t-5.5 -30.5zM455 181q-8 -15 -23 -9q-3 2 -5.5 5t-2.5 7t3 8q8 14 22 9q4 -2 6 -5t2 -7t-2 -8z" />
    <glyph glyph-name="uniE606" unicode="&#xe606;" 
d="M871 607h-704q-9 0 -18 -3t-15.5 -8t-12 -12t-8 -15.5t-2.5 -18.5v-492q0 -24 16.5 -40.5t39.5 -16.5h704q23 0 39 16.5t16 40.5v492q0 24 -16 40.5t-39 16.5zM531 284q-6 -4 -8.5 -5t-5 0t-7.5 5l-342 288h705zM677 274q-10 3 -19.5 -7t-1.5 -18l209 -214h-697l228 214
q6 5 2 13t-11.5 11.5t-13.5 -1.5l-228 -213v488l325 -278q28 -27 52 -28q5 0 10 1.5t8 2.5t8 4.5t7 5.5t7.5 7t7.5 7l322 275v-486zM385 261zM369 261q0 7 5 12t11.5 5t11.5 -5t5 -12t-5 -12t-11.5 -5t-11.5 5t-5 12zM667 261zM650 261q0 7 5 12t12 5q4 0 8 -2.5t6 -6
t2 -8.5q0 -7 -4.5 -12t-11.5 -5q-5 0 -8.5 2.5t-6 6.5t-2.5 8z" />
    <glyph glyph-name="uniE607" unicode="&#xe607;" 
d="M639 321q-40 -51 -105 -59t-116.5 32.5t-59.5 105.5t32.5 116.5t105.5 59t116 -32.5q21 -16 35 -37t20 -44.5t5.5 -48t-9 -48.5t-24.5 -44zM233 -204q-8 0 -15.5 3t-13 8.5t-8.5 12.5t-4 15q-8 292 162 477q56 61 108 90q15 8 31 3t24 -20t3.5 -31t-19.5 -24
q-7 -4 -16.5 -10t-34 -27t-46.5 -46t-47.5 -67t-43.5 -89t-29.5 -113.5t-9.5 -139.5q0 -17 -11.5 -29.5t-28.5 -12.5h-1zM515 33q-42 0 -82 8q-17 4 -26 18t-5.5 30.5t17.5 26t31 5.5q32 -7 65 -7q126 0 215 89.5t89 215.5q0 62 -24 118t-65 97t-97 65t-118 24
q-126 0 -215.5 -89t-89.5 -215q0 -17 2 -33.5t5.5 -32.5t8.5 -31q5 -16 -2.5 -31.5t-23.5 -20.5q-11 -3 -21 -1t-18.5 9t-11.5 18q-4 12 -7.5 24t-6 24t-4 24.5t-2 25t-0.5 25.5q0 105 51.5 194t140.5 140.5t194 51.5t194 -51.5t140.5 -140.5t51.5 -194t-51.5 -194
t-140.5 -140.5t-194 -51.5z" />
    <glyph glyph-name="uniE608" unicode="&#xe608;" 
d="M512 -185q-98 0 -187.5 38.5t-155 104t-104 155t-38.5 187.5q0 79 24.5 152.5t69.5 133.5t105 105t133.5 69.5t152.5 24.5q98 0 187.5 -38.5t155 -104t104 -155t38.5 -187.5q0 -179 -118 -316q-113 -130 -281 -161q-43 -8 -86 -8zM512 733q-88 0 -168.5 -34t-138.5 -92
t-92 -138.5t-34 -168.5t34 -168.5t92 -138.5t138.5 -92t168.5 -34q59 0 115 15.5t103.5 43.5t87.5 68t68 87.5t43.5 103.5t15.5 115q0 88 -34 168.5t-92 138.5t-138.5 92t-168.5 34zM655 303q-10 2 -13.5 6t-1.5 8l2 3q2 5 5.5 12t3 24t-12.5 29q-9 10 -25 13t-31.5 1
t-30 -6t-23.5 -7l-9 -4q-21 -7 -23.5 1t2.5 30q0 6 -0.5 12t-2 12.5t-5 12t-8 10t-12 7t-17 3.5t-22.5 -1.5t-28 -8.5q-24 -8 -49.5 -25t-44.5 -35t-34.5 -35t-24 -27t-8.5 -11q-22 -30 -33.5 -60t-10.5 -44v-15q16 -134 232 -157q84 -6 167.5 27t112.5 96q9 18 12 34.5
t1 28.5t-8.5 22.5t-14 18t-16.5 13t-16 8.5t-13 4zM440 85q-15 -1 -29.5 0t-28 3.5t-26.5 6.5t-24 8.5t-20.5 10.5t-17.5 13t-14.5 15.5t-11 17t-7 18t-2.5 20.5q0 50 52.5 85.5t128.5 40.5q50 2 91 -10t65.5 -36.5t24.5 -56.5q0 -33 -24 -64t-66 -50.5t-91 -21.5zM420 280
q-29 -3 -48.5 -15t-27 -27t-11 -29.5t-3.5 -24.5l1 -10q0 -31 27 -45q45 -21 86 -12.5t65 40.5q11 14 12.5 36t-7 43t-33.5 34t-61 10zM396 146q-15 -2 -24.5 5.5t-9.5 18.5q0 13 8.5 22.5t22.5 11.5q14 3 24 -5.5t10 -21.5q2 -10 -8 -19t-23 -12zM454 198q-3 -2 -6.5 -2.5
t-6 0t-4.5 2.5q-2 3 -2.5 6.5t1 7t4.5 6.5t7 3.5t6 -0.5t4 -3q5 -5 3.5 -11.5t-6.5 -8.5zM703 344q10 0 17 14v3q4 32 -4 53t-22.5 28.5t-29 10.5t-25.5 2l-11 -1q-8 0 -12.5 -5t-4.5 -12q0 -18 17 -18q22 5 35 1t18 -13.5t6 -19.5t0 -18l-1 -8q0 -17 17 -17zM693 539
q-15 3 -32.5 3t-32.5 -1.5t-17 -1.5h-3q-17 -6 -17 -24q0 -10 6.5 -17t16.5 -7q1 0 2 0.5t3.5 1t5 1.5t5.5 2t5 2q3 1 10 1t17 -1t22.5 -5t24.5 -10t24 -17t21 -26q6 -13 9 -25t3.5 -21t-0.5 -16.5t-2.5 -11t-2.5 -5.5q-3 -10 -3 -23q0 -21 24 -21q6 0 10 0.5t8 5.5t6 15
q7 25 8 48.5t-3.5 42t-14 34.5t-21.5 28t-26.5 22t-28 16t-27.5 10z" />
    <glyph glyph-name="uniE609" unicode="&#xe609;" 
d="M823 125h-619q-9 0 -18 2t-17 5.5t-15 8t-13 10.5t-11 13.5t-8 15t-5 16.5t-2 18v442q0 24 12 44.5t32.5 32.5t44.5 12h619q8 0 15.5 -1.5t15 -4.5t14 -6.5t12 -8.5t10.5 -11t9 -12.5t6.5 -13.5t4 -15t1.5 -16v-442q0 -15 -4.5 -28.5t-12.5 -24t-19 -19t-24.5 -13
t-27.5 -4.5zM823 656h-619v-442h619v442zM292 37h442q12 0 22.5 -6t16 -16t5.5 -22v-44h-44h-442h-44v44q0 18 13 31t31 13z" />
    <glyph glyph-name="uniE60A" unicode="&#xe60a;" 
d="M817 90h-614l-137 -68v-69h888v69zM817 636h-614v-478h614v478zM749 226h-478v342h478v-342z" />
    <glyph glyph-name="uniE60B" unicode="&#xe60b;" 
d="M326.5 487q-11.5 0 -20 -8.5t-8.5 -19.5q0 -8 4 -14.5t10.5 -10.5t14.5 -4q11 0 19.5 8.5t8.5 20t-8.5 20t-20 8.5zM498 430q12 0 20.5 8.5t8.5 20t-8.5 20t-20.5 8.5q-5 0 -9 -1t-8 -4t-6.5 -6.5t-4 -8t-1.5 -8.5q0 -12 8.5 -20.5t20.5 -8.5zM569 304q-11 0 -18 -7.5
t-7 -17.5q0 -2 0.5 -4.5t1 -4.5t1.5 -3.5t3 -2.5l2 -4l4 -2l4 -2q2 -1 4 -1h5q10 0 17 7t7 17q0 6 -2 10.5t-5 8t-8 5t-9 1.5zM512 812q-139 0 -256.5 -68.5t-186 -186.5t-68.5 -257q0 -104 40.5 -198.5t109 -163t163 -109t198.5 -40.5t199 40.5t163.5 109t109 163
t40.5 198.5q0 84 -26 162t-73 141t-110 110t-141 73t-162 26zM312 191l-59 -24q-10 -4 -18 4q-4 4 -4.5 8.5t1.5 9.5l20 37q-35 28 -55 66t-20 82q0 83 69 143t166 60l1 -1q85 0 149.5 -46.5t80.5 -116.5q-96 0 -163 -59q-71 -62 -71 -148q0 -17 4 -35q-56 0 -101 20z
M782 77l17 -32q2 -4 1.5 -8.5t-4.5 -6.5q-6 -7 -15 -4l-51 21q-43 -17 -88 -17q-56 0 -102.5 23.5t-73.5 64t-27 88.5q0 73 59.5 125t143.5 52l1 -1q56 0 102.5 -23.5t73.5 -64.5t27 -89q0 -77 -64 -128zM716 304q-10 0 -17 -7.5t-7 -17.5q0 -3 0.5 -5.5t1.5 -5.5l4 -4
q1 -3 3 -4.5t4.5 -2.5t5.5 -1.5t5 -0.5q11 0 18 7t7 17q0 11 -7 18t-18 7z" />
    <glyph glyph-name="uniE60C" unicode="&#xe60c;" 
d="M402 -103h223v111h-223v-111zM904 677h-781q-9 0 -17.5 -3t-15.5 -8t-12 -12t-8 -15.5t-3 -17.5v-501q0 -23 16.5 -39.5t39.5 -16.5h781q23 0 39.5 16.5t16.5 39.5v501q0 23 -16.5 39.5t-39.5 16.5zM569 120h-111v55h111v-55zM904 231h-781v390h781v-390z" />
    <glyph glyph-name="uniE60D" unicode="&#xe60d;" 
d="M448 428q0 -26 -19 -45t-45 -19h-320q-26 0 -45 19t-19 45v320q0 26 19 45t45 19h320q26 0 45 -19t19 -45v-320zM1024 428q0 -26 -19 -45t-45 -19h-320q-26 0 -45 19t-19 45v320q0 26 19 45t45 19h320q26 0 45 -19t19 -45v-320zM448 -148q0 -26 -19 -45t-45 -19h-320
q-26 0 -45 19t-19 45v320q0 26 19 45t45 19h320q26 0 45 -19t19 -45v-320zM1024 -148q0 -26 -19 -45t-45 -19h-320q-26 0 -45 19t-19 45v320q0 26 19 45t45 19h320q26 0 45 -19t19 -45v-320z" />
    <glyph glyph-name="uniE60E" unicode="&#xe60e;" 
d="M512 726q44 0 85.5 -8t80.5 -25q78 -34 136 -92q58 -57 91.5 -135t33.5 -166q0 -89 -33.5 -166.5t-91.5 -135.5t-136 -91q-39 -17 -80.5 -25.5t-85.5 -8.5q-88 0 -166 34t-136 91.5t-91.5 135t-33.5 166.5t33.5 166.5t91.5 134.5q29 29 63 52t73 40q78 33 166 33z
M512 -42q71 0 133 27t108 74q47 46 73.5 108.5t26.5 133.5q0 34 -6.5 67.5t-19.5 64.5q-27 62 -74 109q-46 46 -108 73q-31 13 -64.5 20t-68.5 7q-71 0 -133 -27q-31 -14 -58 -32t-50 -41q-47 -47 -73.5 -109t-26.5 -132q0 -72 26.5 -134t73.5 -108q46 -47 108 -74t133 -27z
M555 513v-171h170v-85h-170v-171h-86v171h-170v86h170v170h86z" />
    <glyph glyph-name="uniE60F" unicode="&#xe60f;" 
d="M864 -112v1v1q0 80 -46.5 147t-127.5 106.5t-176 39.5t-175.5 -39.5t-127.5 -106.5t-47 -147v-1v-1h-74v1v1q0 122 87.5 217t223.5 126q-65 30 -105 90t-40 134q0 67 33.5 123.5t90.5 89.5t125 33t125 -33t90.5 -89.5t33.5 -123.5q0 -48 -18 -91.5t-49 -76.5t-73 -53
q141 -29 232.5 -125t91.5 -221v-2h-74zM699 457q0 52 -26 96t-70.5 69.5t-97.5 25.5q-80 0 -137 -56t-57 -135q0 -39 15.5 -74.5t41.5 -61.5t62 -41t75 -15q90 0 148 68q45 54 46 124z" />
    <glyph glyph-name="uniE610" unicode="&#xe610;" horiz-adv-x="1025" 
d="M386 78q12 20 6 40t-26 28q-19 8 -41.5 0.5t-34.5 -25.5q-12 -20 -7 -39.5t24.5 -29t42.5 -1.5t36 27zM439 147q5 8 2.5 15.5t-10.5 10.5t-16 -2.5t-12 -10.5q-10 -18 7 -26q8 -3 16.5 -3t12.5 11v5zM539 81q-26 -59 -90.5 -86.5t-127.5 -6.5q-62 19 -85 72t4 107
t86.5 80t120.5 11q63 -17 90.5 -68.5t1.5 -108.5zM717 172q-5 55 -50.5 97t-119 62t-157.5 12q-127 -13 -211 -80.5t-76 -151.5q6 -54 51.5 -96.5t119 -62.5t156.5 -12q128 13 211.5 81t75.5 151zM893 170q0 -39 -21 -80t-62 -78.5t-96.5 -67t-129.5 -47.5t-154.5 -18
t-157 19.5t-137.5 53.5t-98 86t-37 114q0 66 39.5 140t113.5 147q96 97 194.5 135.5t141.5 -4.5q37 -36 11 -119q-2 -8 -0.5 -11.5t5.5 -4t8.5 -3t7.5 2.5l4 1q79 33 140 33t88 -34q25 -36 0 -102l-3 -12q-1 -4 3 -7t6.5 -4t9.5 -3q33 -11 59 -27.5t45.5 -46.5t19.5 -66v3z
M851 523q24 -27 31 -62t-4 -67q-4 -13 -16.5 -19.5t-25.5 -2.5q-13 5 -19.5 17t-2.5 26q12 36 -13.5 63t-61.5 20q-13 -3 -25 4.5t-15 21.5q-2 13 5 25t21 15q34 7 68 -3.5t58 -37.5zM954 616q50 -55 64.5 -127t-7.5 -138q-5 -15 -19.5 -22.5t-30 -2.5t-23 19.5t-2.5 29.5
q16 47 5.5 98.5t-45.5 90.5t-84.5 54t-98.5 5q-16 -3 -30 5.5t-17.5 24.5t5.5 29.5t25 17.5q70 15 139.5 -6.5t118.5 -77.5z" />
    <glyph glyph-name="uniE611" unicode="&#xe611;" 
d="M696 812l152 -1024h-272l-14 184h-95l-16 -184h-275l135 1024h385zM555 154q-20 174 -40 430q-41 -294 -52 -430h92z" />
    <glyph glyph-name="uniE612" unicode="&#xe612;" 
d="M897 -25l27 -90l-99 54q-18 -4 -28 -6.5t-25.5 -5.5t-29 -4.5t-26.5 -1.5q-63 0 -120.5 20.5t-98.5 56t-65 83.5t-24 102q0 108 89.5 185t218.5 77q81 0 151.5 -35t113.5 -96t43 -131q-1 -113 -127 -208zM616 300q-9 0 -17.5 -5t-13.5 -13.5t-5 -17.5q0 -14 11.5 -25
t24.5 -11q20 0 33 11t13 25q0 7 -3.5 13.5t-9.5 11.5t-14.5 8t-18.5 3zM816 300q-7 0 -13.5 -3t-11.5 -8t-8 -11.5t-3 -13.5q0 -14 11 -25t25 -11q19 0 32 11t13 25q0 5 -2 10.5t-6 10t-9.5 8t-13 5.5t-14.5 2zM385 178q0 -37 11 -75q-18 -2 -34 -2q-11 0 -22 1t-20 2
t-21.5 3t-19.5 3.5t-21.5 4.5t-22.5 5l-126 -64l36 109q-145 101 -145 243q0 85 49 155.5t132 111t181 40.5q134 0 238.5 -72t127.5 -181h-8l-10 2h-8h-9q-129 0 -218.5 -83.5t-89.5 -202.5zM245 562q-22 0 -38.5 -13t-16.5 -32q0 -10 5 -18.5t12.5 -14.5t17.5 -9t20 -3
q13 0 23.5 5.5t16 15.5t5.5 24q0 6 -1.5 12t-4 11t-7 9t-9 7t-11 4.5t-12.5 1.5zM498 562q-21 0 -37.5 -13t-16.5 -32q0 -8 3 -15.5t8.5 -12.5t12 -9t14.5 -6t16 -2q21 0 33.5 12t12.5 33q0 36 -34 43q-6 2 -12 2z" />
    <glyph glyph-name="uniE613" unicode="&#xe613;" 
d="M501 459q19 0 30.5 11t11.5 30q0 10 -3 17.5t-8.5 13t-13.5 8.5t-17 3q-13 0 -24 -5t-18.5 -15t-7.5 -22t7.5 -21.5t18.5 -14.5t24 -5zM268 542q-20 0 -35.5 -12t-15.5 -30t15.5 -29.5t35.5 -11.5q12 0 21.5 5t14.5 14.5t5 21.5q0 19 -11.5 30.5t-29.5 11.5zM1000 192
q0 48 -21.5 93.5t-58 79.5t-87 56t-106.5 27v2v3q-11 51 -43.5 97t-79 78.5t-106 51.5t-122.5 19q-146 0 -248 -89q-99 -90 -101 -210q0 -135 131 -231l-30 -90q-3 -9 4 -16q5 -3 10 -4q4 0 7 2l112 56l14 -3q23 -4 34.5 -6.5t30.5 -4.5t36 -2q16 0 32 1q7 1 11 6
q31 -77 108.5 -125.5t173.5 -48.5q36 0 98 16l87 -47q3 -2 7 -2q3 0 5.5 1t4.5 2q8 7 5 16l-22 74q114 90 114 198zM406 133q-8 -1 -15.5 -1.5t-14.5 -0.5q-34 0 -95 13l-19 4h-4q-1 0 -2.5 -0.5t-3.5 -0.5l-84 -42l22 65q1 3 1 6.5t-2 6t-4 4.5q-64 44 -95.5 97.5
t-31.5 115.5q0 31 8 61.5t24 56.5t37.5 49.5t49.5 42t59 31.5t67 20.5t73 7.5q116 0 208 -63t113 -157q-35 -1 -68 -8t-62 -20t-54.5 -30.5t-45.5 -39.5t-34.5 -47.5t-22.5 -54t-8 -57.5t9 -60q-3 1 -5 1zM859 12q-9 -7 -6 -17l15 -48l-59 32q-4 2 -8 2h-3q-64 -16 -96 -16
q-112 0 -190.5 66.5t-78.5 160t78.5 160t190.5 66.5q108 0 188 -67t80 -159q0 -97 -111 -180zM609 300q-12 0 -22.5 -10.5t-10.5 -23t10.5 -23t22.5 -10.5q19 0 30.5 10t11.5 23q0 9 -5 16.5t-14.5 12.5t-22.5 5zM793 300q-12 0 -22.5 -10.5t-10.5 -23t10 -23t23 -10.5
q6 0 11.5 1.5t10 3.5t8.5 5.5t6.5 7t4 7.5t1.5 8q0 9 -5.5 16.5t-15 12.5t-21.5 5zM793 300z" />
    <glyph glyph-name="uniE614" unicode="&#xe614;" 
d="M439 343q-32 -1 -61.5 -7.5t-54.5 -17t-46.5 -25t-36 -31.5t-23 -36.5t-8.5 -40.5q0 -25 12 -48t33 -40.5t49 -30.5t63 -19t73 -4q94 4 161.5 55t67.5 115q0 62 -66 98.5t-163 31.5zM525 131q-30 -40 -81 -51.5t-109 17.5q-34 18 -34 56q2 1 -0.5 12.5t3.5 30.5t15 37.5
t34 34t61 20.5q45 5 76 -11.5t42 -43t9.5 -55t-16.5 -47.5zM440 210q-6 -5 -7.5 -12t1.5 -13q8 -13 23 -2q13 12 6 25q-3 5 -9.5 6t-13.5 -4zM379 194q-17 -2 -28.5 -15t-11.5 -28t12.5 -23.5t29.5 -7.5q18 3 30.5 14.5t12.5 26.5q0 10 -5 18t-15.5 12t-24.5 3zM960 613
q0 38 -18 69.5t-49.5 49.5t-68.5 18h-623q-57 0 -97 -40t-40 -97v-622q0 -57 40 -97t97 -40h622q56 0 96 40t40 97v622h1zM781 156q-25 -53 -85.5 -91t-130.5 -53t-136 -10q-40 3 -75.5 9.5t-74.5 21t-68 35.5t-49.5 54.5t-25.5 75.5q-1 8 -0.5 21t14 53t42.5 79q1 2 5 7
t15.5 19t24 27.5t31.5 31.5t37.5 32.5t41.5 28t45 20.5q31 11 54 11t35.5 -6t20 -18.5t9.5 -24t2 -24.5q-8 -24 -5.5 -34.5t29.5 -2.5q4 2 11.5 5t28.5 9t39 8.5t38 -1t32 -16.5q10 -9 14.5 -21.5t3.5 -23t-3.5 -19.5t-5.5 -15l-3 -5q-1 -1 -1.5 -2t-1.5 -4t-0.5 -6t5 -6
t13.5 -5q9 -1 20 -5.5t24.5 -13t24 -21.5t16.5 -29.5t4 -40t-15 -50.5zM677 463q-9 0 -15.5 6t-6.5 14q0 6 3 11t8 8t11 3q2 0 7 0.5t18 0.5t24.5 -2.5t25.5 -10.5t23 -20t14 -34t2 -51v-2q-1 -7 -7 -12t-14 -5q-9 0 -15 6t-6 15l1 5t1 13t-1 17t-5.5 17.5t-12.5 15t-21.5 8
t-33.5 -2.5zM896 344q-2 -14 -9 -18t-21 -4q-6 0 -11.5 2t-9.5 5.5t-6 9t-2 11.5v6q0 4 0.5 7t1.5 5.5t1 4.5l2 4q0 2 1 2v1q3 9 5 17.5t-0.5 33.5t-13.5 51q-21 35 -57 54t-61 21.5t-33 -1.5l-28 -6q-6 0 -11.5 2.5t-9.5 6.5t-6 10t-2 12q0 10 6 18t16 12l1 1h1l2 1
q56 9 105 -2q25 -7 49 -19.5t48 -34t37.5 -51.5t17.5 -70.5t-13 -91.5z" />
    <glyph glyph-name="uniE615" unicode="&#xe615;" 
d="M195 257q0 -9 -7 -16t-16 -7h-87q-9 0 -16 7t-7 16v86q0 9 7 16t16 7h87q6 0 11.5 -3t8.5 -8.5t3 -11.5v-86zM962 257q0 -9 -7 -16t-16 -7h-629q-3 0 -6 1t-5.5 2.5t-4.5 3.5t-3.5 4.5t-2.5 5.5t-1 6v86q0 6 3 11.5t8.5 8.5t11.5 3h629q9 0 16 -7t7 -16v-86zM195 -54
q0 -10 -7 -16.5t-16 -6.5h-87q-9 0 -16 6.5t-7 16.5v85q0 10 7 16.5t16 6.5h87h4l4 -2q2 0 4 -1l2 -2q2 -1 3.5 -2.5t2.5 -3.5l2 -4v-4q1 -2 1 -4v-85zM962 -54q0 -5 -2 -9t-5 -7t-7.5 -5t-8.5 -2h-629q-9 0 -16 6.5t-7 16.5v85q0 10 7 16.5t16 6.5h629q6 0 11 -3t8.5 -8
t3.5 -12v-85zM195 569q0 -5 -2 -9t-5 -7.5t-7 -5t-9 -1.5h-87q-4 0 -8.5 1.5t-7.5 5t-5 7.5t-2 9v85q0 6 3.5 11.5t8.5 8.5t11 3h87q9 0 16 -6.5t7 -16.5v-85zM962 569q0 -10 -7 -16.5t-16 -6.5h-629q-4 0 -8.5 1.5t-7.5 5t-5 7.5t-2 9v85q0 10 7 16.5t16 6.5h629
q4 0 8.5 -2t7.5 -5t5 -7t2 -9v-85z" />
    <glyph glyph-name="uniE616" unicode="&#xe616;" 
d="M414 398q0 -42 29.5 -71.5t71.5 -29.5q27 0 50 13.5t36.5 37t13.5 50.5q0 42 -29.5 71.5t-70.5 29.5q-28 0 -51 -13.5t-36.5 -37t-13.5 -50.5zM515 -224q-9 0 -16 3t-29.5 24t-52.5 61t-85.5 123t-128.5 200q-73 99 -73 225q0 104 51.5 192.5t140 140.5t193 52t193 -51.5
t140 -140.5t51.5 -193q0 -125 -74 -227q-53 -84 -96.5 -151t-72.5 -109t-53 -72t-37 -45t-25 -22.5t-16 -8.5t-10 -1zM515 725q-29 0 -56.5 -5t-52.5 -15t-48.5 -23.5t-44 -30.5t-38 -37.5t-31 -44t-23 -48.5t-14.5 -53t-5 -56q0 -50 15.5 -97t44.5 -87q76 -122 148.5 -229
t104.5 -142q32 35 104 141.5t146 226.5q62 86 62 187q0 129 -91.5 221t-220.5 92z" />
    <glyph glyph-name="uniE617" unicode="&#xe617;" 
d="M406 247h-264q-21 0 -36.5 -15.5t-15.5 -37.5v-264q0 -21 15.5 -36.5t36.5 -15.5h264q22 0 37.5 15.5t15.5 36.5v264q0 15 -7 27t-19 19t-27 7zM406 -70h-264v264h264v-264zM406 722h-264q-14 0 -26 -7t-19 -19t-7 -26v-264q0 -22 15.5 -37.5t36.5 -15.5h264
q22 0 37.5 15.5t15.5 37.5v264q0 21 -15.5 36.5t-37.5 15.5zM406 406h-264v264h264v-264zM882 247h-264q-22 0 -37.5 -15.5t-15.5 -37.5v-264q0 -8 2.5 -16t7.5 -14.5t11.5 -11.5t14.5 -7.5t17 -2.5h264q21 0 36.5 15.5t15.5 36.5v264q0 22 -15.5 37.5t-36.5 15.5zM882 -70
h-264v264h264v-264zM882 722h-264q-15 0 -27 -7t-19 -19t-7 -26v-264q0 -22 15.5 -37.5t37.5 -15.5h264q21 0 36.5 15.5t15.5 37.5v264q0 14 -7 26t-19 19t-26 7zM882 406h-264v264h264v-264z" />
    <glyph glyph-name="uniE618" unicode="&#xe618;" 
d="M319 -38l-155 152l-97 -259zM816 449l-160 165l-463 -457l166 -173zM947 575q5 5 7.5 11.5t2.5 13t-0.5 13.5t-2 12.5t-3 10.5t-2.5 7l-2 3q-42 47 -91 82q-21 16 -42.5 16t-32.5 -8l-11 -8l-82 -82l167 -167q70 71 92 96zM947 575zM67 -145h732v-59h-732v59z" />
    <glyph glyph-name="uniE619" unicode="&#xe619;" 
d="M819 64q9 5 30 21.5t36 21.5q-30 -45 -54 -73.5t-58 -57t-76.5 -44t-95.5 -19.5q-154 -11 -297 90q-47 33 -52 38q-2 1 -2.5 8.5t-2.5 9.5q-4 5 -20.5 20.5t-29.5 29.5t-21 26q-1 3 -3 7t-3.5 7.5t-3 8t-2.5 8.5t-3 8.5t-3 7.5q-17 35 -27 80t-11.5 97.5t14.5 96.5
q3 8 8.5 18t10 16.5t13 17t10.5 14.5q4 5 14 18t16.5 23t12.5 21q-1 -17 -11.5 -65t-7.5 -86q8 -115 74.5 -206.5t161.5 -148.5q1 0 7.5 1t6.5 -1q6 -6 20 -13t37 -15q34 -12 75.5 -17t83.5 -4t82.5 10t70.5 25zM885 310q-29 -65 -86.5 -104t-149.5 -33q-53 3 -105.5 27.5
t-92.5 63t-67.5 88t-31 103.5t17.5 110q3 6 7 12.5t8 11.5t9.5 11.5t8.5 11.5q1 1 7.5 10.5t9 13t9 9.5t12.5 9q-38 -80 -14 -157t78.5 -135t119.5 -85q55 -24 140 -13.5t120 46.5zM597 640q0 -39 18.5 -75.5t49.5 -62t68.5 -40.5t80 -13t80.5 21q-18 -47 -67.5 -67
t-106.5 -8.5t-100 47.5q-54 47 -61 120t42 130q5 -7 5 -14t-2 -12t-4.5 -12.5t-2.5 -13.5z" />
    <glyph glyph-name="uniE61A" unicode="&#xe61a;" 
d="M178 684q60 -1 337 0t335 -3q-9 -106 -29.5 -336.5t-30.5 -352.5q-139 -36 -208 -56q-4 -1 -30 -10t-38 -10q-8 0 -17 2.5t-17 5t-18.5 6.5t-17.5 6q-10 3 -209 56q-11 135 -34 391t-26 293q0 7 3 8zM278 548q0 -16 3.5 -41t4.5 -36q33 -4 107.5 -3t107.5 -2
q-23 -10 -51.5 -22t-51 -22t-51.5 -22.5t-51 -21.5q0 -16 3 -44.5t4 -43.5q42 -2 163 1t156 -3q0 -17 -1 -35.5t-2.5 -38t-1.5 -34.5q-17 -6 -52.5 -16.5t-53.5 -16.5q-11 3 -27 6t-29.5 5t-28.5 5.5t-25 8.5q0 11 -2.5 33t-2.5 35h-85q0 -18 1 -35.5t2.5 -34t3.5 -32
t5 -31.5q7 -2 15.5 -4t15.5 -4t15 -4.5t15.5 -4.5t15.5 -4l16 -4q7 -2 28.5 -8.5t38 -10.5t28.5 -4q9 0 28 6t20 7q67 17 143 37q12 128 23 266q-17 1 -92.5 0t-88.5 3q112 47 188 83q2 38 8 87q-62 0 -232.5 2t-229.5 -2z" />
    <glyph glyph-name="uniE61B" unicode="&#xe61b;" 
d="M674 277q45 40 71 97t26 123q0 77 -35.5 142.5t-96 103.5t-132.5 38q-109 0 -186 -83.5t-77 -200.5q0 -119 78 -202q8 -7 22 -18.5t52.5 -30.5t78 -26.5t94.5 5t105 52.5zM851 80l-143 131q-20 -17 -43.5 -31t-65.5 -27t-85.5 -14t-103 17t-119.5 58q-24 -19 -48.5 -39.5
t-58.5 -54t-58 -63.5t-39 -64.5t-10 -61.5q1 -4 2 -11t11.5 -24t27.5 -30.5t54.5 -25t87.5 -13.5q22 -1 58.5 -3t133 -4t175.5 1.5t154.5 18t100.5 40.5q36 25 35 72q0 57 -66 128z" />
    <glyph glyph-name="uniE61C" unicode="&#xe61c;" 
d="M512 812q-101 0 -192.5 -40.5t-158 -109t-106 -163t-39.5 -199t39.5 -199t106 -163t158 -109t192.5 -40.5q175 0 312 114l55 55q61 69 95 157t34 185q0 105 -39.5 199.5t-106 163t-158 109t-192.5 40.5zM759 29v0h-494v0q-9 0 -16 4.5t-11 12t-4 16.5q0 98 56.5 175.5
t145.5 103.5q-36 21 -57.5 58.5t-21.5 82.5q0 26 8 50.5t22.5 44.5t33.5 35t42.5 23t48.5 8t48.5 -8t42.5 -23t33.5 -35t22.5 -44.5t8 -50.5q0 -45 -21.5 -82.5t-57.5 -58.5q58 -17 104 -57.5t72 -98.5t26 -123q0 -14 -9 -23.5t-22 -9.5z" />
    <glyph glyph-name="uniE61D" unicode="&#xe61d;" 
d="M820 15q0 -25 -10 -47t-27.5 -38.5t-41 -26t-51.5 -9.5h-357q-28 0 -51.5 9.5t-41 26t-27.5 38.5t-10 47v675q0 25 10 47.5t27.5 39t41 26t51.5 9.5h357q28 0 51.5 -9.5t41 -26t27.5 -39t10 -47.5v-675zM739 642h-456v-578h456v578zM511 36q-21 0 -36.5 -15t-15.5 -37
t15.5 -37.5t36.5 -15.5q22 0 37 15.5t15 37.5t-15 37t-37 15zM592 727q0 8 -5 12.5t-12 4.5h-128q-5 0 -10.5 -4.5t-5.5 -12.5t5 -12.5t11 -4.5h128q7 0 12 4.5t5 12.5z" />
    <glyph glyph-name="uniE61E" unicode="&#xe61e;" 
d="M749 649h-465v55q0 3 1.5 5.5t4.5 4.5t6 2h441q5 0 8.5 -3.5t3.5 -8.5v-55zM749 85h-465v530h465v-530zM749 -102q0 -3 -1.5 -6t-4.5 -4.5t-6 -1.5h-441q-3 0 -6 1.5t-4.5 4.5t-1.5 6v154h465v-154zM737 749h-441q-12 0 -22.5 -6t-16.5 -16.5t-6 -22.5v-806
q0 -12 6 -22.5t16.5 -16.5t22.5 -6h441q19 0 32 13t13 32v806q0 18 -13 31.5t-32 13.5zM467 -14h99v-33h-99v33zM467 -14z" />
    <glyph glyph-name="uniE61F" unicode="&#xe61f;" 
d="M314 445h-91q-11 0 -21.5 4.5t-17.5 11.5t-11.5 17.5t-4.5 21.5v91q0 23 16 39t39 16h91q11 0 21.5 -4.5t17.5 -11.5t11.5 -17.5t4.5 -21.5v-91q0 -23 -16 -39t-39 -16zM223 609q-8 0 -13 -5t-5 -13v-91q0 -8 5 -13.5t13 -5.5h91q8 0 13.5 5.5t5.5 13.5v91q0 5 -2.5 9.5
t-7 6.5t-9.5 2h-91zM561 445h-91q-11 0 -21.5 4.5t-17.5 11.5t-11.5 17.5t-4.5 21.5v91q0 23 16 39t39 16h91q15 0 27.5 -7.5t20 -20t7.5 -27.5v-91q0 -23 -16 -39t-39 -16zM470 609q-8 0 -13.5 -5t-5.5 -13v-91q0 -8 5.5 -13.5t13.5 -5.5h91q5 0 9.5 2.5t6.5 7t2 9.5v91
q0 5 -2 9.5t-6.5 6.5t-9.5 2h-91zM314 198h-91q-15 0 -27.5 7.5t-20 20t-7.5 27.5v91q0 23 16 39t39 16h91q23 0 39 -16t16 -39v-91q0 -11 -4.5 -21.5t-11.5 -17.5t-17.5 -11.5t-21.5 -4.5zM223 363q-8 0 -13 -5.5t-5 -13.5v-91q0 -3 0.5 -6t2.5 -5l4 -4q2 -2 5 -2.5t6 -0.5
h91q8 0 13.5 5t5.5 13v91q0 8 -5.5 13.5t-13.5 5.5h-91zM561 198h-91q-15 0 -27.5 7.5t-20 20t-7.5 27.5v91q0 23 16 39t39 16h91q23 0 39 -16t16 -39v-91q0 -23 -16 -39t-39 -16zM470 363q-8 0 -13.5 -5.5t-5.5 -13.5v-91q0 -8 5.5 -13t13.5 -5h91q5 0 9.5 2t6.5 6.5t2 9.5
v91q0 8 -5 13.5t-13 5.5h-91zM801 445h-91q-9 0 -17.5 2.5t-15 8t-12 12t-8 15t-2.5 17.5v91q0 15 7.5 27.5t20 20t27.5 7.5h91q9 0 17.5 -3t15 -8t11.5 -11.5t8 -15t3 -17.5v-91q0 -35 -32 -50q-11 -5 -23 -5zM710 609q-8 0 -13.5 -5t-5.5 -13v-91q0 -8 5.5 -13.5
t13.5 -5.5h91q5 0 9.5 2.5t6.5 7t2 9.5v91q0 5 -2 9.5t-6.5 6.5t-9.5 2h-91zM801 198h-91q-9 0 -17.5 3t-15 8t-12 11.5t-8 15t-2.5 17.5v91q0 15 7.5 27.5t20 20t27.5 7.5h91q9 0 17.5 -2.5t15 -8t11.5 -12t8 -15t3 -17.5v-91q0 -35 -32 -50q-11 -5 -23 -5zM710 363
q-8 0 -13.5 -5.5t-5.5 -13.5v-91q0 -8 5.5 -13t13.5 -5h91q5 0 9.5 2t6.5 6.5t2 9.5v91q0 8 -5 13.5t-13 5.5h-91zM314 -46h-91q-23 0 -39 16t-16 39v91q0 23 16 39t39 16h91q11 0 21.5 -4.5t17.5 -11.5t11.5 -17.5t4.5 -21.5v-91q0 -15 -7.5 -27.5t-20 -20t-27.5 -7.5z
M223 119q-3 0 -6 -1t-5 -3l-4 -4q-2 -2 -2.5 -5t-0.5 -6v-91q0 -4 1 -7.5t3.5 -6t6 -4t7.5 -1.5h91q8 0 13.5 5.5t5.5 13.5v91q0 8 -5.5 13.5t-13.5 5.5h-91zM561 -46h-91q-23 0 -39 16t-16 39v91q0 23 16 39t39 16h91q11 0 21.5 -4.5t17.5 -11.5t11.5 -17.5t4.5 -21.5v-91
q0 -15 -7.5 -27.5t-20 -20t-27.5 -7.5zM470 119q-8 0 -13.5 -5.5t-5.5 -13.5v-91q0 -8 5.5 -13.5t13.5 -5.5h91q5 0 9.5 2.5t6.5 7t2 9.5v91q0 8 -5 13.5t-13 5.5h-91zM801 -46h-91q-9 0 -17.5 3t-15 8t-12 11.5t-8 15t-2.5 17.5v91q0 23 16 39t39 16h91q11 0 21.5 -4.5
t17.5 -11.5t11.5 -17.5t4.5 -21.5v-91q0 -23 -16 -39t-39 -16zM710 119q-8 0 -13.5 -5.5t-5.5 -13.5v-91q0 -3 1 -5l2 -4q1 -2 2.5 -4t3.5 -3t4.5 -2t5.5 -1h91q5 0 9.5 2.5t6.5 7t2 9.5v91q0 8 -5 13.5t-13 5.5h-91z" />
    <glyph glyph-name="uniE620" unicode="&#xe620;" 
d="M683 343l245 243q12 -12 12 -29v-514v-5l-2 -6q0 -2 -1 -4t-2 -4.5t-2.5 -4.5t-3.5 -4zM99 587q5 5 13 8.5t16 3.5l772 -1q15 0 27 -11l-414 -328zM96 15q-5 6 -8 13t-3 15v514q0 17 12 29l244 -243zM512 188l128 112l287 -286q-11 -12 -27 -12h-775q-16 0 -27 12
l286 286z" />
    <glyph glyph-name="uniE621" unicode="&#xe621;" 
d="M677 431h-284q-7 0 -12 -5t-5 -12v-67q0 -3 1.5 -6.5t3.5 -5.5t5.5 -3.5t6.5 -1.5h178q5 0 7 -4t0 -8l-190 -320q-4 -7 0 -14t12 -7h92q6 0 12 8l177 323q12 22 12 48v59q1 6 -4 11t-12 5zM885 584h-76v56q0 15 -10 25t-25 10h-35q-14 0 -24 -10t-10 -25v-56h-141v56
q0 10 -4.5 18t-12.5 12.5t-18 4.5h-34q-15 0 -25 -10t-10 -25v-56h-139v56q0 15 -10.5 25t-24.5 10h-35q-15 0 -25 -10t-10 -25v-56h-76q-12 0 -23.5 -4t-21 -11t-17 -16.5t-11.5 -21.5t-4 -24v-536q0 -12 4 -23.5t11.5 -21t17 -17t21 -11.5t23.5 -4h745q31 0 54 23t23 54
v536q0 31 -23 54t-54 23zM900 -29q0 -4 -2 -7.5t-5.5 -5.5t-7.5 -2h-746q-2 0 -4.5 1t-4.5 2t-3 3t-2 4.5t-1 4.5v536q0 6 4.5 10.5t10.5 4.5h76v-21q0 -15 10 -25t25 -10h35q9 0 17 4.5t12.5 12.5t4.5 18v21h140v-21q0 -10 4.5 -18t12.5 -12.5t18 -4.5h34q10 0 18 4.5
t12.5 12.5t4.5 18v21h139v-21q0 -15 10.5 -25t24.5 -10h35q15 0 25 10t10 25v21h76q6 0 10.5 -4.5t4.5 -10.5v-536h2z" />
    <glyph glyph-name="uniE622" unicode="&#xe622;" 
d="M513 133zM128 748l70 -806l314 -90l314 90l70 806h-768zM709 78l-197 -56l-197 56l-13 156h96l7 -79l107 -30l1 -1l107 30l11 128h-225l-8 100h241l9 102h-368l-8 98h481z" />
    <glyph glyph-name="uniE623" unicode="&#xe623;" 
d="M416 636h-160v-425q0 -75 -24.5 -105t-74.5 -30q-41 0 -76 13l-17 -125q47 -16 110 -16q242 0 242 262v426zM765 652q-114 0 -183.5 -57.5t-69.5 -146.5q0 -19 3.5 -36t10 -32.5t16 -29.5t22 -26.5t27 -23.5t31.5 -21t35.5 -18.5t39.5 -16.5q41 -14 64.5 -28t35 -30
t11.5 -37q0 -34 -27 -54.5t-78 -20.5q-82 0 -161 43l-30 -126q31 -18 80 -30.5t102 -12.5q130 0 198 60t68 151q0 37 -10 67t-31.5 55t-53 45.5t-76.5 37.5q-70 28 -96 47t-26 50q0 28 25 47t71 19q66 0 133 -35l38 128q-33 15 -74.5 23.5t-94.5 8.5z" />
    <glyph glyph-name="uniE624" unicode="&#xe624;" 
d="M384 604v-394q0 -62 -14.5 -107.5t-42.5 -73.5q-51 -49 -153 -49q-37 0 -75 8l9 61q24 -5 49 -5q65 0 98 40t33 127v393h96zM416 636h-160v-425q0 -75 -24.5 -105t-74.5 -30q-41 0 -76 13l-17 -125q47 -16 110 -16q242 0 242 262v426zM765 620q18 0 35.5 -1t33.5 -3.5
t31.5 -6t29.5 -8.5l-19 -64q-54 22 -113 22q-57 0 -92 -27q-17 -13 -26.5 -31.5t-9.5 -39.5q0 -20 8.5 -37.5t19 -28.5t33 -23.5t37 -19t45.5 -18.5v0q40 -16 69 -34t47 -39q9 -11 15 -22t10.5 -23.5t6.5 -26.5t2 -30q0 -77 -54 -124q-31 -27 -76.5 -41t-103.5 -14
q-79 0 -145 28l15 63q70 -29 139 -29q61 0 97 27q40 29 40 80q0 5 -0.5 10t-1.5 10t-2 9.5t-3 8.5t-4.5 8.5t-5 8.5t-5.5 7.5t-7 7.5t-8 7q-29 25 -95 48q-40 15 -70.5 33t-51.5 39q-42 43 -42 102q0 36 14.5 67t42.5 54q61 51 164 51zM765 652q-114 0 -183.5 -57.5
t-69.5 -146.5q0 -19 3.5 -36t10 -32.5t16 -29.5t22 -26.5t27 -23.5t31.5 -21t35.5 -18.5t39.5 -16.5q41 -14 64.5 -28t35 -30t11.5 -37q0 -34 -27 -54.5t-78 -20.5q-82 0 -161 43l-30 -126q31 -18 80 -30.5t102 -12.5q130 0 198 60t68 151q0 37 -10 67t-31.5 55t-53 45.5
t-76.5 37.5q-70 28 -96 47t-26 50q0 28 25 47t71 19q66 0 133 -35l38 128q-33 15 -74.5 23.5t-94.5 8.5z" />
    <glyph glyph-name="uniE625" unicode="&#xe625;" 
d="M796 338q41 41 41 97q0 19 -5.5 38t-16 35t-25 29t-32 22.5t-38 14.5t-41.5 5h-5h-3q5 -7 8 -10q19 -24 29 -52q15 -4 29 -12t25.5 -18.5t18.5 -24t7 -27.5q0 -26 -15 -47.5t-41 -31.5q-4 -1 -7 -3t-5.5 -5t-4.5 -6t-3 -6t-1 -7q0 -9 6 -16.5t17 -10.5l6 -1
q31 -8 57.5 -24t45.5 -38t29.5 -49.5t10.5 -57.5v-15h-46q7 -29 7 -50h56q14 0 23 8.5t9 20.5v36q0 66 -37 121t-99 85zM290 301l6 1q23 7 23 27q0 19 -22 27q-25 10 -40 31.5t-15 47.5q0 27 22 50t52 32q10 28 30 52q1 2 7 10h-3h-5q-21 0 -41.5 -5t-38 -14.5t-32 -22.5
t-25 -29t-16 -35t-5.5 -38q0 -9 1 -18t3.5 -17.5t6 -17t8 -16t10.5 -15t12 -13.5q-62 -30 -99 -85t-37 -120v-37q0 -12 9 -20.5t23 -8.5h56q0 22 7 50h-46v23q0 59 39.5 102.5t103.5 58.5h6zM736 17h-447v37q0 94 64.5 160t157.5 66t158 -66t65 -160v-20v-17h2zM398 459.5
q0 47.5 34 81t81 33.5q16 0 30.5 -4t27 -11.5t23.5 -18t18 -23t11.5 -27.5t4.5 -31q0 -47 -34 -81t-81 -34t-81 34t-34 81.5zM620 323q31 24 48.5 59.5t17.5 76.5q0 28 -8.5 54.5t-24.5 48t-37.5 37.5t-48 25t-54.5 9q-72 0 -122.5 -51t-50.5 -123q0 -85 66 -136
q-81 -33 -131.5 -106t-50.5 -163v-58q0 -8 3.5 -14.5t10.5 -10.5t15 -4h518q12 0 20.5 8.5t8.5 20.5v58q0 90 -50 163t-132 106h2z" />
    <glyph glyph-name="uniE626" unicode="&#xe626;" 
d="M826 812h-661q-16 0 -31 -5t-27.5 -14t-21.5 -21.5t-14 -27.5t-5 -31v-826q0 -41 29 -70t70 -29h661q41 0 70 29t29 70v826q0 20 -8 38.5t-21 31.5t-31.5 21t-38.5 8zM495 -179q-13 0 -23 9.5t-10 23.5q0 9 4.5 16.5t12.5 12t16 4.5q14 0 24 -9.5t10 -23.5q0 -7 -3 -13
t-7.5 -10.5t-10.5 -7t-13 -2.5zM826 -80h-661v793h661v-793z" />
    <glyph glyph-name="uniE627" unicode="&#xe627;" 
d="M314 505q-17 0 -30 -10.5t-13 -25.5t13 -25.5t30 -10.5q16 0 25.5 10t9.5 26t-9.5 26t-25.5 10zM606 298q-10 0 -19 -9t-9 -20q0 -4 1.5 -8.5t4 -8t6.5 -6t8 -4.5t8 -2q16 0 26 9t10 20q0 7 -4.5 13.5t-13 11t-18.5 4.5zM1002 631q0 61 -43 103.5t-104 42.5h-667
q-61 0 -103.5 -42.5t-42.5 -103.5v-668q0 -60 42.5 -103t103.5 -43h668q60 0 103 43t43 103v668zM406 140q-10 0 -19.5 1t-21.5 3t-17 2.5t-22 4t-20 4.5l-100 -50l29 86q-114 80 -114 192q0 102 83.5 172.5t201.5 70.5q106 0 188 -57t100 -144q-14 2 -27 2
q-67 0 -123 -30.5t-88 -82t-32 -113.5q0 -30 9 -60h-9q-4 0 -8.5 -0.5t-9.5 -0.5zM827 40l22 -71l-79 43q-19 -5 -29.5 -7.5t-26.5 -4.5t-29 -2q-67 0 -123 27.5t-88 75t-32 104.5q0 86 70.5 146.5t172.5 60.5q63 0 119 -28t89.5 -75.5t33.5 -103.5q-1 -90 -100 -165z
M763 298q-11 0 -19.5 -9t-8.5 -20t8.5 -20t19.5 -9q8 0 14.5 2.5t11.5 6.5t7.5 9.5t2.5 10.5q0 7 -4.5 13.5t-13 11t-18.5 4.5zM513 433q4 0 7.5 0.5t6.5 1.5t5.5 2.5t4.5 3.5t4 4.5t3.5 5t2.5 5.5t1.5 6t0.5 7q0 16 -9.5 26t-26.5 10q-16 0 -29 -10.5t-13.5 -25.5t13 -25.5
t29.5 -10.5z" />
    <glyph glyph-name="uniE628" unicode="&#xe628;" 
d="M864 537q19 0 36.5 -7t29.5 -20q7 -6 12 -13.5t8 -16.5q8 -17 8 -37v-271q0 -4 -0.5 -8t-1 -7.5t-1.5 -7.5t-2 -7.5t-3 -6.5q-7 -17 -20 -30t-30 -20.5t-36 -7.5h-734q-20 0 -37 7.5t-30 20.5t-20.5 30t-7.5 37v271q0 20 8 37q2 6 5 11t7 10t8 9t9 8l10 6q5 4 11 6
q17 7 37 7h734zM322 203q26 21 36 62l-36 11q-7 -31 -24 -42q-8 -5 -19 -7.5t-25 -2.5h-4q-4 0 -10 1q-11 1 -25 9q-6 4 -12 10.5t-12 15.5q-10 18 -10 52q0 2 0.5 6t1.5 11q3 13 11 27.5t23 26t40 11.5q24 0 36 -10q4 -4 8 -8.5t7.5 -10t6.5 -12.5l39 12q-5 17 -13.5 30
t-21.5 22q-12 10 -27.5 14.5t-33.5 4.5q-32 0 -60 -15q-28 -16 -42 -43q-7 -14 -10.5 -31t-3.5 -36q0 -35 13 -66q6 -14 15.5 -26t22.5 -20q4 -3 9.5 -6t11.5 -5t13 -3t14.5 -2t15.5 -1q39 0 65 21zM522 328q-32 9 -45 17q-2 1 -4 2.5t-3.5 3t-2.5 3t-2 3.5t-1 4v4q0 8 3 14
t10 10t17.5 6.5t25.5 2.5q7 0 13 -1t10 -2q3 0 5.5 -1t4.5 -2.5t4 -3.5q6 -4 9 -11l8 -17l31 3q0 2 -1.5 13.5t-10.5 25.5q-8 12 -25.5 23t-48.5 11q-33 0 -52 -8t-28 -19t-12 -22q-1 -6 -1.5 -10.5t-0.5 -7.5q0 -5 0.5 -10t2 -9t3.5 -8t5 -7q11 -14 26 -22q7 -5 14.5 -8
t14.5 -5l20 -5q18 -6 30 -12q5 -3 9.5 -5.5t7.5 -5.5q6 -5 8 -10q1 -2 1.5 -4.5t0.5 -4.5v-13q0 -2 -0.5 -4t-1.5 -3.5t-2 -3.5q-2 -2 -5.5 -3.5t-8.5 -3.5q-10 -3 -29 -3q-23 0 -35.5 5t-18.5 12q-3 3 -5 7t-2 8q-1 8 -1 15h-36q0 -11 1.5 -26t11.5 -27q5 -7 13 -12t18 -10
q22 -9 61 -9q10 0 24 2q7 1 13 3t12 5.5t10.5 9t8.5 13.5q8 14 8 41v4q0 2 -0.5 5t-0.5 5q-1 5 -3.5 9.5t-6.5 9.5q-8 11 -24 21q-6 3 -13 6t-15.5 6t-18.5 6zM770 328q-6 1 -11.5 2.5t-10.5 3t-8 2.5q-6 2 -10 4t-7 5q-6 4 -7 9q-1 2 -1.5 5t-0.5 6q0 8 3 14t10 9
q3 2 7 3.5t9 2.5t11.5 1.5t14.5 0.5q7 0 12.5 -0.5t9.5 -1.5q2 0 4 -1t4 -2.5t3.5 -3t2.5 -3t2 -3.5l2 -4q3 -7 7 -17l38 3q0 1 -0.5 4.5t-1.5 9.5q-2 11 -10.5 24t-26 24t-48.5 11q-6 0 -12 -0.5t-11.5 -1t-10.5 -1.5t-9 -2t-8 -3q-7 -3 -12 -6t-9 -6t-7 -7
q-10 -11 -12.5 -22.5t-2.5 -17.5q0 -21 11 -35q2 -3 4 -5t4 -4.5t4.5 -4.5t4.5 -4t4.5 -3.5t4.5 -2.5q5 -4 10 -6.5t10 -4.5t9 -4q15 -4 21 -6q2 -1 4 -1.5t4.5 -1t4 -1t3.5 -1.5t4 -1.5t4 -0.5l2 -2h3l3 -2q3 -1 6 -2.5t5.5 -3t4 -3t2.5 -3t1.5 -3t0.5 -2.5v-4v-4
q0 -7 -1 -12t-5 -9l-13 -6q-5 -1 -10.5 -1.5t-12.5 -0.5q-8 0 -14.5 0.5t-11.5 2t-9 3.5q-12 6 -17 13t-6 14v4v3v2h-41q0 -2 0.5 -6t1.5 -10.5t4 -13.5t8 -14.5t13 -14.5t18 -13q21 -12 60 -12q11 0 24.5 3.5t25 11.5t19 22t7.5 37v4v5v6q0 9 -7 19q-3 3 -6 6.5t-8 7
t-10 6.5q-17 10 -51 18z" />
    <glyph glyph-name="uniE629" unicode="&#xe629;" 
d="M1016 454l-503 169l-505 -169l505 -169l395 133v-197h41v211zM513 328l-376 126l376 125l374 -125zM781 182q-91 -38 -193 -47q-87 -8 -179 6q-91 13 -164 42v129h-41v-156l12 -6q75 -33 185 -50q62 -9 122 -9h9q4 0 8 0.5t8 0.5h9q4 0 8.5 0.5t8.5 0.5t8.5 0.5t8.5 0.5
q116 11 219 56l12 6v156h-41v-130z" />
    <glyph glyph-name="uniE62A" unicode="&#xe62a;" 
d="M803 -96h-674q-11 0 -19 -7.5t-8 -19t8 -19t19 -7.5h674h5q2 0 4 1t3.5 2t3.5 2t3.5 2.5t2.5 3t2 3.5t1 4l2 4v5q0 11 -8 18.5t-19 7.5zM233 210l-89 -235l231 92zM255 112l24 -24l-39 -15zM797 483l-144 145l-393 -390l145 -145zM333 235l134 134l188 187l69 -69
l-134 -134l-188 -187zM897 671l-59 59q-3 3 -8 7q-4 3 -9 5q-2 1 -4.5 1.5t-5.5 1.5q-5 2 -10 2.5t-11 -0.5q-3 0 -5.5 -0.5t-4.5 -1.5q-5 -2 -10 -3q-2 -1 -4.5 -2.5t-5.5 -2.5q-4 -4 -8 -7l-72 -73l145 -144l72 72q6 6 9.5 12.5t5.5 14.5t2 16.5t-2 16t-5.5 14t-9.5 12.5z
M844 609l-34 -34l-68 68l34 34q2 2 4 3q1 1 2 1.5t2 1.5q2 0 5 1q2 1 5 1q3 1 5 0q2 0 5 -1h2l2 -1q1 -1 2.5 -1.5t2.5 -1.5l3 -3l28 -27q4 -4 6 -9.5t2 -11.5q0 -12 -8 -20z" />
    <glyph glyph-name="uniE62B" unicode="&#xe62b;" 
d="M400 812h-320q-33 0 -56.5 -23.5t-23.5 -56.5v-320q0 -33 23.5 -56.5t56.5 -23.5h320q33 0 56.5 23.5t23.5 56.5v320q0 33 -23.5 56.5t-56.5 23.5zM448 412q0 -20 -14 -34t-34 -14h-320q-20 0 -34 14t-14 34v320q0 20 14 34t34 14h320q20 0 34 -14t14 -34v-320zM944 812
h-320q-33 0 -56.5 -23.5t-23.5 -56.5v-320q0 -33 23.5 -56.5t56.5 -23.5h320q33 0 56.5 23.5t23.5 56.5v320q0 33 -23.5 56.5t-56.5 23.5zM992 412q0 -20 -14 -34t-34 -14h-320q-20 0 -34 14t-14 34v320q0 20 14 34t34 14h320q20 0 34 -14t14 -34v-320zM944 268h-320
q-33 0 -56.5 -23.5t-23.5 -56.5v-320q0 -33 23.5 -56.5t56.5 -23.5h320q33 0 56.5 23.5t23.5 56.5v320q0 33 -23.5 56.5t-56.5 23.5zM992 -132q0 -20 -14 -34t-34 -14h-320q-20 0 -34 14t-14 34v320q0 20 14 34t34 14h320q20 0 34 -14t14 -34v-320zM400 268h-320
q-33 0 -56.5 -23.5t-23.5 -56.5v-320q0 -33 23.5 -56.5t56.5 -23.5h320q33 0 56.5 23.5t23.5 56.5v320q0 33 -23.5 56.5t-56.5 23.5zM448 -132q0 -20 -14 -34t-34 -14h-320q-20 0 -34 14t-14 34v320q0 20 14 34t34 14h320q20 0 34 -14t14 -34v-320z" />
    <glyph glyph-name="uniE62C" unicode="&#xe62c;" 
d="M960 61h-897v583h897v-583zM103 101h818v504h-818v-504zM467 81h89v-131h-89v131zM169 -16h687v-49h-687v49z" />
    <glyph glyph-name="uniE62D" unicode="&#xe62d;" 
d="M909 748h-794q-13 0 -25 -7t-19 -19t-7 -25v-794q0 -13 7 -25t19 -19t25 -7h794q21 0 36 15t15 36v794q0 10 -4 19.5t-11 16.5t-16.5 11t-19.5 4zM355 -51h-24v85h-76v-85h-24v176h24v-71h76v71h24v-176zM285 361l231 233l223 -233h-75l-1 -177h-100v113q0 6 -4.5 10
t-10.5 4h-72q-6 0 -10.5 -4t-4.5 -10v-113h-101v177h-75zM514 103h-59v-154h-24v154h-56v22h139v-22zM666 -51l-21 113l-38 -115h-6l-40 115l-20 -113h-23l33 176h11l42 -128l38 128h11l36 -176h-23zM811 -51h-103v176h24v-154h79v-22z" />
    <glyph glyph-name="uniE62E" unicode="&#xe62e;" 
d="M909 748h-794q-13 0 -25 -7t-19 -19t-7 -25v-794q0 -13 7 -25t19 -19t25 -7h794q21 0 36 15t15 36v794q0 10 -4 19.5t-11 16.5t-16.5 11t-19.5 4zM386 562q0 13 9.5 22.5t22.5 9.5h314q13 0 22.5 -9.5t9.5 -22.5v-31q0 -13 -9.5 -22.5t-22.5 -9.5h-314q-13 0 -22.5 9.5
t-9.5 22.5v31zM386 405q0 8 4.5 15.5t11.5 11.5t16 4h314q6 0 10.5 -1.5t8.5 -4.5t7 -7t4.5 -8.5t1.5 -9.5v-32q0 -13 -9.5 -22t-22.5 -9h-314q-13 0 -22.5 9t-9.5 22v32zM386 247q0 9 4.5 16t11.5 11.5t16 4.5h314q9 0 16 -4.5t11.5 -11.5t4.5 -16v-31q0 -9 -4.5 -16
t-11.5 -11.5t-16 -4.5h-314q-13 0 -22.5 9.5t-9.5 22.5v31zM260 562q0 13 9.5 22.5t22.5 9.5h31q9 0 16 -4.5t11.5 -11.5t4.5 -16v-31q0 -9 -4.5 -16t-11.5 -11.5t-16 -4.5h-31q-13 0 -22.5 9.5t-9.5 22.5v31zM260 405q0 6 2.5 12t7 10t10 6.5t12.5 2.5h31q9 0 16 -4
t11.5 -11.5t4.5 -15.5v-32q0 -8 -4.5 -15.5t-11.5 -11.5t-16 -4h-31q-13 0 -22.5 9t-9.5 22v32zM260 247q0 7 2.5 12.5t7 10t10 7t12.5 2.5h31q9 0 16 -4.5t11.5 -11.5t4.5 -16v-31q0 -9 -4.5 -16t-11.5 -11.5t-16 -4.5h-31q-13 0 -22.5 9.5t-9.5 22.5v31zM355 -51h-24v85
h-76v-85h-24v176h24v-71h76v71h24v-176zM514 103h-59v-154h-24v154h-56v22h139v-22zM666 -51l-21 113l-38 -115h-6l-40 115l-20 -113h-23l33 176h11l42 -128l38 128h11l36 -176h-23zM811 -51h-103v176h24v-154h79v-22z" />
    <glyph glyph-name="uniE62F" unicode="&#xe62f;" 
d="M502 498q-10 -27 -10 -34l-65 -181h153l-65 181q-6 13 -13 34zM512 812q-212 0 -362 -150t-150 -362t150 -362t362 -150t362 150t150 362t-150 362t-362 150zM645 78q-6 38 -17 65l-24 68h-198l-24 -68q-1 -5 -4 -13l-6 -18q-2 -6 -3.5 -14.5t-3.5 -19.5h-102
q6 10 17.5 35.5t16.5 36.5l136 355q4 9 7.5 20t6 17t4.5 12.5t3 11.5h106l4 -14q2 -7 5.5 -17.5t10.5 -29.5l137 -355q25 -62 31 -72h-103z" />
    <glyph glyph-name="uniE630" unicode="&#xe630;" 
d="M820 15q0 -25 -10 -47t-27.5 -38.5t-41 -26t-51.5 -9.5h-357q-28 0 -51.5 9.5t-41 26t-27.5 38.5t-10 47v675q0 25 10 47.5t27.5 39t41 26t51.5 9.5h357q28 0 51.5 -9.5t41 -26t27.5 -39t10 -47.5v-675zM739 642h-456v-578h456v578zM511 36q-21 0 -36.5 -15t-15.5 -37
t15.5 -37.5t36.5 -15.5q22 0 37 15.5t15 37.5t-15 37t-37 15zM592 727q0 8 -5 12.5t-12 4.5h-128q-5 0 -10.5 -4.5t-5.5 -12.5t5 -12.5t11 -4.5h128q7 0 12 4.5t5 12.5z" />
    <glyph glyph-name="uniE631" unicode="&#xe631;" 
d="M885 368q-1 5 -2 9t-3 8t-5 7v1q-4 5 -9 9l-318 307q-21 21 -52 21t-51 -21l-318 -305q-5 -4 -9.5 -9.5t-8.5 -14.5t-4 -17v-365q0 -20 14 -34.5t34 -14.5h683q20 0 34.5 14.5t14.5 34.5v364v6zM310 176l-157 -144v283zM360 156q3 2 5 4q0 1 1 2l108 98q8 7 19 7
q10 0 18 -6l293 -263h-615zM682 173l154 137v-276zM184 392l295 283q7 7 17 7t18 -7l275 -263h-1l42 -42l-185 -164l-103 93q-6 4 -13 7.5t-14 6t-14.5 3t-15 0t-15 -3t-15 -6t-13.5 -8.5l-96 -89l-184 163l21 20h1z" />
    <glyph glyph-name="uniE632" unicode="&#xe632;" 
d="M709 78l-197 -56l-197 56l-13 156h96l7 -79l107 -30l1 -1l107 30l11 128h-225l-8 100h241l9 102h-368l-8 98h481zM128 748l70 -807l314 -89l314 89l70 807h-768zM766 -9l-254 -72l-254 72l-60 693h628z" />
    <glyph glyph-name="uniE633" unicode="&#xe633;" 
d="M518 797q100 0 190 -38t159 -106q68 -69 106 -159t38 -190q0 -101 -38 -191t-106 -158q-34 -33 -74 -59.5t-84 -45.5t-92.5 -29t-98.5 -10q-101 0 -191 38t-158 106q-129 129 -143 310q-1 20 -1 39q0 100 38 190t106 159q68 68 158 106t191 38zM826 612q-61 61 -140.5 95
t-168 34t-168.5 -34t-141 -95q-59 -61 -93 -140.5t-34 -167.5t34 -168.5t93 -140.5q61 -60 141.5 -93.5t168.5 -33.5t167.5 33.5t140.5 93.5q60 60 94 140.5t34 168.5q0 36 -5.5 71t-16.5 67t-26.5 62t-35.5 57t-44 51zM734 574h-136q-13 0 -24 -6.5t-17.5 -17.5t-6.5 -24
v-136q0 -20 14 -34t34 -14h136q13 0 24 6.5t17.5 17.5t6.5 24v136q0 20 -14 34t-34 14zM741 390q0 -2 -1 -3.5t-2.5 -2.5t-3.5 -1h-136q-3 0 -5 2t-2 5v136q0 7 7 7h136q7 0 7 -7v-136zM426 574h-136q-20 0 -34 -14t-14 -34v-136q0 -20 14 -34t34 -14h136q20 0 34 14t14 34
v136q0 20 -14 34t-34 14zM433 390q0 -3 -2 -5t-5 -2h-136q-6 2 -7 7v136q0 7 7 7h136q7 0 7 -7v-136zM734 266h-136q-20 0 -34 -14t-14 -33v-137q0 -8 2.5 -15t7 -13t10 -10.5t13 -7t15.5 -2.5h136q20 0 34 14t14 34v137q0 13 -6.5 24t-17.5 17t-24 6zM741 82q0 -7 -7 -7
h-136q-7 0 -7 7v137q0 2 2 4t5 2h136q7 0 7 -6v-137zM426 266h-136q-20 0 -34 -14t-14 -33v-137q0 -8 2.5 -15t7 -13t10.5 -10.5t13 -7t15 -2.5h136q20 0 34 14t14 34v137q0 13 -6.5 24t-17.5 17t-24 6zM433 82q0 -7 -7 -7h-136q-7 0 -7 7v137q0 1 1 3t2.5 2.5t3.5 0.5h136
q7 0 7 -6v-137z" />
    <glyph glyph-name="uniE634" unicode="&#xe634;" horiz-adv-x="1339" 
d="M196 159v-369h-196v995h325q109 0 166 -28q58 -29 103 -100q12 -18 20.5 -38t14 -42t8 -46t2.5 -51v-16q0 -8 -1 -16l-2 -16l-2 -16q-1 -8 -2.5 -16t-3.5 -15.5t-4 -15.5t-4 -15.5t-5 -15.5q-8 -23 -18.5 -43t-23 -36.5t-27.5 -30.5q-42 -40 -86 -53.5t-128 -13.5h-136
v-2zM189 341h125q36 0 61 10t41 30q29 42 29 91q0 61 -33 96q-33 36 -98 36h-125v-263zM1316 566l-165 -67q-17 60 -52 89.5t-89 29.5q-115 0 -115 -89q0 -37 21 -61q10 -12 34 -22.5t62 -20.5q128 -31 184 -61q58 -31 98 -102q39 -66 39 -154q0 -133 -86 -234
q-28 -33 -66 -54.5t-85 -32.5t-103 -11q-63 0 -117.5 17t-98.5 52q-89 68 -117 206l178 48q31 -139 169 -139q33 0 58 7.5t41.5 23t24.5 34t8 40.5q0 43 -29 67q-10 7 -26 15t-38 15t-49 14q-159 39 -226 109q-67 67 -67 199t81 223q82 93 218 93q244 0 313 -234z" />
  </font>
</defs>
</svg>
